<mxfile host="app.diagrams.net" modified="2023-12-03T21:56:31.603Z" agent="Mozilla/5.0 (Windows NT 10.0; Win64; x64) AppleWebKit/537.36 (KHTML, like Gecko) Chrome/119.0.0.0 Safari/537.36 Edg/119.0.0.0" etag="4q7GjXPXAG5hRZrdAp2U" version="22.1.5" type="device" pages="2">
  <diagram name="Страница — 1" id="o3sYmgAIau1fM3dsohi6">
    <mxGraphModel dx="1624" dy="840" grid="1" gridSize="10" guides="1" tooltips="1" connect="1" arrows="1" fold="1" page="1" pageScale="1" pageWidth="3300" pageHeight="2339" math="0" shadow="0">
      <root>
        <mxCell id="0" />
        <mxCell id="1" parent="0" />
        <mxCell id="Sf9XIOIQq0EHz7IIRPpC-59" value="" style="shape=image;imageAspect=0;aspect=fixed;verticalLabelPosition=bottom;verticalAlign=top;image=data:image/png,iVBORw0KGgoAAAANSUhEUgAAA48AAALnCAYAAAApuXKMAAAAAXNSR0IArs4c6QAACeV0RVh0bXhmaWxlACUzQ214ZmlsZSUyMGhvc3QlM0QlMjJhcHAuZGlhZ3JhbXMubmV0JTIyJTIwbW9kaWZpZWQlM0QlMjIyMDIzLTExLTMwVDIzJTNBNDUlM0E1OC4wMTNaJTIyJTIwYWdlbnQlM0QlMjJNb3ppbGxhJTJGNS4wJTIwKFdpbmRvd3MlMjBOVCUyMDEwLjAlM0IlMjBXaW42NCUzQiUyMHg2NCklMjBBcHBsZVdlYktpdCUyRjUzNy4zNiUyMChLSFRNTCUyQyUyMGxpa2UlMjBHZWNrbyklMjBDaHJvbWUlMkYxMTkuMC4wLjAlMjBTYWZhcmklMkY1MzcuMzYlMjBFZGclMkYxMTkuMC4wLjAlMjIlMjBldGFnJTNEJTIyeVdoZWNqNkVoWG96bVFOZzJJODElMjIlMjB2ZXJzaW9uJTNEJTIyMjIuMS41JTIyJTIwdHlwZSUzRCUyMmRldmljZSUyMiUyMHBhZ2VzJTNEJTIyMiUyMiUzRSUzQ2RpYWdyYW0lMjBpZCUzRCUyMlkweTNjS3YtNEEyYUlNSElhMGtpJTIyJTIwbmFtZSUzRCUyMlBhZ2UtMSUyMiUzRTdadGRtNW82RUlCJTJGRFplN0R3bkl4eVVLJTJCM0ZPMWZPNGJOdGJLbG5sT1VnOEdLdmJYOThRQW9KSlc5b1NyZTd4QW5FU3Z0NlpERFBKcUJtajFmNCUyQmo5YkxNWTVScWtFOTNtdUdyMEVJVGR1a1g0WGt0WlFBMTlSTHlTSlBZaTQ3Q0o2U0w0Z0xxMjdiSkVhYlZrZUNjVXFTZFZzNHgxbUc1cVFsaSUyRkljNzlyZFhuRGF2dW82V2lCQjhEU1BVbEg2SVluSnNwUTZBJTJGMGdmMERKWWxsZEdlaThaUlZWbmJsZ3M0eGl2R3VJakVBelJqbkdwTnhiN1Vjb0xlaFZYTXJqN3I3Uld0OVlqakxTNVFCWUh2QTVTcmY4MmZoOWtkZnFZWE84eldKVTlOYzFZN2hiSmdROXJhTjUwYnFqJTJCcVd5SlZtbDlCZWd1JTJCTDElMkJTMTlSamxCJTJCNGFJMzg4OXdpdEU4bGZhaGJmZURDcGEzRHh1RElzTGRnZllibVVMeXdabzIlMkJEQ2lDdDRVWiUyRjl3SUR1Y0F4eUpNWlZJYWxONzNlUW1CZUFCRHFuSk9JTWVrYXlJVG4lMkJGNDF3aW5NcWlkRkx0RTNwRFE5ZmNFYTRBd1R3bE5ia0tFTm5DZWllbndMNnBYdWhabmdDUnZwVTVIdXNNcHloQWxTU3BrZWlLRTBXR2YwNXA2d1FsUThMUmdsMTR4NXZXQ1Z4WEZ4R3FweTIlMkJzNm1CMHVpaHo3Y25HTmZzQVdic0FNNWhTYnNDT3k4NSUyRkJoT21QMnEyc1VsOGUydzNKcmE1U1EwNVFBdGcyWUhMS3R6U1FPMjNwOHZ6eVZXNTZRSXJFWTBFODUzVnNRaHRMNmIxdUVDc01IVEZpUTlZQTM2NFJRd3ljRnJuR1UwVkJrVllDdWV5b1lYeWw2SVglMkZlNk9wa0kwQm1JMllmSnVJS0p1SjdZVkFhQ0FTM0FOelNiJTJCUE5hS09HJTJCbDF0QUtCR0c2NHVhT09mMmZTdllCUWVSdXhobU9uJTJGajZ1ZkdsZEFva2xiMFd2TEJZSW1aOEY3cGtVcldoVUVzayUyQmJOWHRVJTJGVmdFemJjMzdBejNkbkNzTHJzU3RZYWVJa2ZvOXAxaWRvMHptcnJTcU8yeFQwOVlRUmR2QmdjaTBVcjJXMFQ3emxCUEdibUo1QXpSR0pXUjZ6dVJQUzg1aWQ5VlJ1NlM4MTJCWEoyJTJCbjRLY21PNWVEam5yJTJCTjBoYzNPNmhGd3ZhWllycHFnZnByTyUyRkh5ZjNweUY0OUdydnhSUkJCNkxBVVdXTFl0N3F6N3k3OElwd1N0NG02bkNLT2Q0c0dFM0g0MkRpQiUyRjRWUVpVRiUyQktxZzFwNmptYXM5RDk4OWpyendjVHE1SHFxeWw1QkNxbUxlZEtrbzdTNHpDYVlrbmVrSDVMbnltUk9BbERsUGRTRFBsY2FjQUtUTVlhb0RlYTZzUmoxSXFZOVVCMUpNY21hQjV3Y3pBZWZWcmtsMThhMnlGYWwlMkIlMkJJdXBFcHN6ZnpQMG9iZ2dDQ1Z6ZGVvVUlBYTAxYUxUWmgxbExTMVU4OTRGaHBzTjQxQXViYXozV25ObHFscXI4dlRxVlBRMnlyTlZpMWdYa2czJTJGZXVEUlN6WmN6OUEydERPYVRzTGdvNkpsOHo5eVJydVRFbXhaRk4yTENpUlJORnM2VXYlMkZHaFVDYzA3NWpuNTRTbEM0Rk5kTGwwcDZzJTJCd3h4dFdxbXdQNHhVcWpRWVlpQjRXVHFCNWRSWkdPZTBLeFYxZGpVT1g5VEE4JTJGajRVVkVsRDBwb01zWXNGeFYlMkZNOHglMkJXNnFkU3FHMFFiYXRYaXZueGVnT0NVZlBvYnYzcGhQTWVBNWZZbzRpZiUyRlRRVHI4UnBET0ttQk1Wbzltc0JvMHY2cEhveEtycWxDaiUyQjNkYXMwcUd4VUJCVmRoR204dnl0bUhqUkZhanZBMDJDdUg4aG55Z2xaVTR2UDV0MkdyaW5jdDZPWFo0OCUyQjQ3SlJiWGE1RHdrQ2RXWGtFeUJXWElpbkolMkJvY2FEJTJGano4UTRHMU5mN29ZUVJmQVElM0QlM0QlM0MlMkZkaWFncmFtJTNFJTNDZGlhZ3JhbSUyMGlkJTNEJTIyc3RtZGhIZ2xlX3NMNEhhakpCakglMjIlMjBuYW1lJTNEJTIyJUQwJUExJUQxJTgyJUQxJTgwJUQwJUIwJUQwJUJEJUQwJUI4JUQxJTg2JUQwJUIwJTIwJUUyJTgwJTk0JTIwMiUyMiUzRW5aS3hEb0l3RUlhZnBudnRFYUtyRlhWeFluQnVhSVVtaFNPbEJ2VHBCUXRpdzBBMGFkTGslMkI3JTJGY1hTOGx3TXZ1WkVWZFhGQXFReGlWSFlFRFlXd1RzNmklMkZCdkx3WkJ0UkQzS3I1U2pOSU5WUE5jSkp1MnVwbWtCMGlNYnBPb1FaVnBYS1hNQ0V0ZGlHMmcxTjJMVVd1VnFBTkJObVNhOWF1c0pUQUVybjRLeDBYb3l0JTJCMmpuazFKTTlxZzJoWkRZZmlGSUNJc0pnMDRRMkpPQmhRZTRSWFNyMmlTWEhWZG0yUDYwV04lMkYzJTJCSCUyQkJ6JTJCT3RxdHh2TllIMzFzcjRieWY0T1pDOEFBJTNEJTNEJTNDJTJGZGlhZ3JhbSUzRSUzQyUyRm14ZmlsZSUzRfm4uWQAACAASURBVHhe7N17rDVVfT/+MU0vWgRLbMUAjYGmtaRCldgWYjQR0Sa9hEsheEOgFlCB0CIEQbAFBYJSG0TAGyKgokSlMalRSr0UwUi9UFJijRAboKB/UEH4ozXm+eUz+a3zXWeembP3Oc+sffba89pJU3zO3rNmvdaaPfs9a82apzVeBAgQIECAAAECBAgQIEBghsDTCBEgQIAAAQIECBAgQIAAgVkCER53zHqTvxMgQIAAAQIECBAgQIDAtAXa8Lhjh/y41W7wtKc9LQC3+nGfI0CAwKBAfL8s4uU7bBHKytguAefp7ZKvs9yp9Zep1bfOXrk8ex39RXjcxfZw0O0ioI8TICA86gMECgo4TxfEXcFNT62/TK2+K9hlF1ol4XEEbgfdCIg2QYBAr4CRRx2DwK4LOE/vuuGUtjC1/jK1+k6pL5eoq/A4gqqDbgREmyBAQHjUBwgUEnCeLgS7opudWn+ZWn1XtNsurFrC4wjUDroREG2CAAHhUR8gUEjAeboQ7Iputq+/vPvd727OOeecdTU+4ogjmuuvv77ZY4891v37m970pubRRx9d+9tnP/vZ5uijj+7V+sxnPtPcf//9O2073nzqqac211xzTXHlbn27+3v55Zc3Z5999rr92Og9Dz74YFvfgw8+eN3+h+EDDzzQXHbZZc0JJ5zQ3HrrrTvVLUzf9a53tX+/++671/19//33b2688cbmkUceab3ivw855JD2PXfddVfz+te/vol9ve2225prr712p22/+MUvbsJ73333LW66ygUIjyO0rpPSCIg2QYCA8KgPECgk4DxdCHZFNzsUHu+88851YbEbElOIiQATrwg4KdwkqvhMvPJQGKGqu+1F0ub1jVCYB7PHH3+8DXKHHnroWoCM/b3lllvWglh6z1577dXWK4XHxx57bF3AS+Exr3uEvjPOOKO58sor16zS588999zmqKOO6qXIzeIN3X2Mf5tnO4t0XpWyhMcRWtJJaQREmyBAQHjUBwgUEnCeLgS7opudNzz2hZMINekVo2zdkcNlDo99QTEF4gsvvLC57rrr2qqddNJJzUUXXbQuGIdF+vd99tmn/e8Ik08++eRa4B4zPOb7GvvUF7677ZPvYzfUr2hXLlIt4XEE1r4vmb6rUUNXQDY7jN+9EtN3MM4znaA7HWBo+kWXKOrWnQ6w6KkA6Usjn/LQN61ihOYttonu1b28oHmmjBTbMRteKoFFLpgTx/Z+++23dnU5TQM65ZRT1v1bfpW4eyx2vwvSNmJaVv7Kp2P1/ZiKf4upRzEt6YYbbljbr759iu12930VviOWqiNWvjN95+l0Tt7oXDjUf7v9vDvykrj6Pp+m3qUfr33n1Ph8Oqf1/b27jcqbZ+l2f97w2P3uiX5w2mmnNW9+85ubCFDpuzKfJrnM4bFvFLDbOPH7JL6Xu9N18zB33HHHteExprpGeI7ppDGCOGZ4TKE2th2vfApr2mcjj2UOLeFxBNful0wcfH1TFmaFx60O43cPxnmnE+QhdOhqUx/P0Bdf3xW2EXh7N/HWt761nU9f65WjdIKJyh144IHr7iWYZ8pIKVfbXT6BRYbH7ndJ9MVLL720ef7zn99cddVV7X09+Q+HJ554oj0OjznmmLU+3O2/80xJ6n6ndC++5cEw/Rjfc8891927kr+n734bPyKWr28vco82Co8bnQvn+TEd9UjHRfx3TL9LYaHv891jpO+cmtssY9hYZNttR1lbDY/R3ldfffXa92W03eGHH75u6uVQe3bvp4x6x/15Q9M2x3RJ9Y39TyOMQ/cFDoXHPEin8Bijk3F/YtzjGHW5+eab23se5/29O2uQI/12jbL77j31vT9mL/l/2+oNj0Nflt0ru92bh/ORn74bi6PYdLV5Mzcep93tu7I3dMVukSNh3S+ZoSkLiwiPQ0Py3ekE8YNvoxHMjb5A+r748i+T22+/fd2N4enLL78Cm/pBKueggw5qrrjiiqZ7NTXvJ+lvcTXvIx/5SPOjH/1obQQ073vdEYcoP17dm9Wjj8SX+rOe9ay1H76pj5988slrVw8joObHRGwrnRyirvGlGF9a8SM7rjZ2398XcNMJJq6YRR1jKkh8Uc8zZcSN3mW+DJd1q4sMj93jPo6HuLgRx3eaopS+3+KKct9V5HDM/32e80n+ndJ37083PMaPm912262dEpV+hOTvGbp/aGh/l7Xt7dd4AvOGx3n7b3fPUkiI0fLu6H33fq70Izv+f/TfrYTHeX7kj6c3vS3NGx675+y+37bdRW+W8WJAHh77+mveAzYbHuM3UPp+ju1sJjxudM9jOla/9KUvtbv3yle+cqdFfYTHMsfulsNjd3QrNVC6Aj3r5t+hHwj56lTdKg9d2Yv3bWcHyb9kNpqysIjwOO90gm543NWRx/RlePzxx6+78Tm1c1yJjS+kCEuHHXbYWjCLtot/ixAXJ9G8X6RgllbGysuIz6SpdF3XfNQitpHf+N31yX8I51fNuuExn0KXwuMll1zSnHfeeW1gPOCAA9aFzfz9feExLze/MjnvVe4yXwe2uowCiwyP+fdX3qdj2mgco3HsxqIE6ThO/929Mh7HWbrS/NBDD81cDCEd2/GjO1+EIbVHX3i8+OKLmwsuuGAt1OYXfvoWTljGtrVPixOYNzx2z4XzfCfHOSj94I7+no88DX0+PxfFD+QUJPtEljFsLK7ltqekecNj/vsjLkh3f1v1XdBfxvZM9R36LZj38WiRee95TBcd03EQs1jiwt+8I48bhcfuRf2+0Lud2WB7eu5iSt1yeJzV+T/4wQ9uuHJUX3ic1chDV/b6wuMib4rNv2Q2mrIwVnjsDuNH/dOVrXmvCMUXXHc78y4J3TfaO3S/ZN/+pC+n+AH63Oc+d90Py43aLY0aREDtTqvo3jea5td3vwi3Eh5jysXnPve59oiMoJjCY1zlihu040sw/9HdfX83PObvjb/FPsXV6tiOq8mL+eKrqZRFhsf8AspLXvKSdSPs0UfjYkk6Qe++++5rQbIbHvN+HD+m43js3vOYzxbIv1P6Zo30hccYrY8pUGmRhPiREeEzLvx0Q22+/Xnv7a6pj9jX2QKbuecxPxfOc89u/h3e/X6fNzx21xHIZ+H0nXMXObtqtu7qvWPe8Ni9WJ0umqUZQn1hbNbv5+5jPxahm9d36NaZfKbHPLdHdQNmGpXt/tac59aGrkF3wCr+vpVcsQjbVSxjy+ExLegxdCLeyshj/sOl+zyZja7s9YXHRTZWftBtNGVhrPC40XTTzYTHtJ15rqzmnvNMsclPhHkfSf2mO201TdvMw2OMfHSfAxSfi/CYX9mNfUsn7/hx273yl//w7Pp0/3d32mr86I2bsNP/T+Ex/vcLXvCCtTn26QdD3/u74bHvx0j6IdA3SrPIvqys5RNYdHhMx1KMNEbgi+/ifJp1HA9x/2O8hkYeu+ExvyKcj0qmH1hx3H3rW99q74mJEf3uDJSh8JgH2DRdMIXHfFn51KobfT8uX8vbozEF5hl57DsXznN+7At36eLI0Ofz30ibGXnczCyhMf2mtq2h8LjRcx6Hfht1g9ZQeOy753FRF7u69e0u2tc3uNB9T35BsG8gYKNFpYYe1dE3WBLnoHQ7Un6fY9/2rbZa5sjdcniM3eneW5Z38qF7HtP9b0PhMv+RkFd5oyt7yxIe+8JhXxhKo2Kpfn1fJJu5EpPfx7PVex67X24bdbeNwmP3h+HQj7XUzjG6kX9p5PW+44471o1ep3rmox/px+dWRx7TBYs87MYXYJq2Gld/497KuJqYVlCLz0R4TUEx/ZCOv/e9f55nPM2acpdfPHHPY5kvw2Xd6qLDY/S1CHCxvPqRRx7ZLtYQ3/XxAzfuf4x/Txf3tnrPY361Pq6y598pQ1fq031k3dH59J2z9957rz2HbOj8Ijwuay8vv1/zhMc0epFPnZ4VHocCZ5odM3RBMO/z81yQjX1LU/3SBcg4Vy1iMZXyrbN8JfT1l+Xby/H2aGr1HU9umlvapfDYJcu/ALcy8rjRFbWNruwtS3jsu6LerVP3R9PQSWCr4bHv5Ne9GtMXcjdzNXPe8JhGBWKf3vWudzXnn3/+2ip0eXjM71/M+00+9Tmt6njwwQevLTCQfkx2A3N3GslG9zz29eF86tu9997bjjzm93+l8BihMfYxXmm0o+/9eXjcaPQ5Tb/r3qc5dLWu9FdW2tfulb++1d+6+9i9sJTva1xkiv4Qo1bdbc+z/PxGF61SOfNOWx9636zpw90rrrlJ7pZfUOuOOOdXafO/daejLTo8plH0CIn5qpGxwvFTTz3VjvynPt03dag75Wme77Lud0r3e3Fo5DEfuYwLQMk07Vf6vsjPEREy+1blK3082f72CswbHjd7z+OsqXLdWzNCoXuMbDY8pvP8dj5Ufntbs3zpUwtTU6tv+R602iX0hseNhptjKlB3MZFElF/VHfOex1lX9uIHxKz7JUs2YzroNjNlIR/p6vsxPs8PrlSnvqv/s6YT9K22mp/QYttDyzVvdKLLf9hHEDjrrLPaE2W6PylNy0g/qu+77762nLiBOp7ZmP9wzn+Ex7+feOKJTayqFT/84pVPaZ212mq6Ojtr5GFoBDC/jyUPjxFqY15/1CtGI9NUue59L/kx0r0nIv7W/bE8z5SRkn166ILM0MWO5BqfywNHqtvQlJRZK6n11TFfbKjvokfqN4899ljvc5/ygBnHQfd9qY7dR0Hkn8uf3ZVfNEoXTFI/SMdKPnLdXY23u9hS98foosPj0A/Tvotj8d5umO97zmPfQgb5bIcY6YxXvohCmr0S34/5CpZ9wb4vxMb2uhcda3sWbOljfErbnzc8dsNd/O++e3bj/Bb9Nf/ezz3TRcy41SH+O7/nd97nPKapgn3n3KE+P6U2LVnXqYWpqdW3ZN+ZwrZ7w2PfSEf3Sln3B073M1sZeeyOyuXhqHuFrW8ec18gWkQjOui2rjxrhGfrW/bJXRWYZ5Q03dgfx27cI9ddpn6r4XHekcNu0ImLEfFDL120SCu9dS1SQOy+L33P5Rc9Zk0Tzp0iOOWLBMwKXH335XWPie0Ij7vad3yewLIJOE8vW4ss9/5Mrb9Mrb7L3fuWf+96w2Pf1eS+6WTd+xrzG2qH7nlMI04xMrnRjceJbtZU1rSwQprWmEYyNvPjc1ebyUG3dUHhcet2pT85FB67bTZrMavNjKJvpU5DV+X7lhLvbn+r01bz7eT1i3/PR+yH7pfaaKbEMow8bqUdfIbAMgs4Ty9z6yzfvk2tv0ytvsvX4+rao8HwWFc1tndvHXTb66/0MgLzhsdZi1ltFB679zxudmW5oZG9eS8e7Wp47HsUTD4teSg8bjQNLUzyqexGHsv0b1udloDz9LTae1drO7X+MrX67mr/mPrnhccReoCDbgREm1g6gaHw2A1ssxazKjXy2J1KnwMuIjz2Te/vjsr21X1oen7a/6678Lh0h4YdqlDAebrCRtvGXZ5af5lafbexa61E0cLjCM3ooBsB0SaWTmCeex7jHsPuYijzBKhdXeBq1qNlSofHocUquuX2LaaTP2i5r9G7o5nC49IdGnaoQgHn6QobbRt3eWr9ZWr13cautRJFC48jNKODbgREm1g6gb6A111tddYy9bHK7dgjj0NTVRc18rjRfdh9j+aJ/YpVGYdWKe4Gzq6X8Lh0h4YdqlDAebrCRtvGXZ5af5lafbexa61E0cLjCM2YDrr0CIG0uFA8UiIW8Ek/HlNR8y4SM/QA7u4u589Ay/829MN+noVEtsKS78fQPuXbTT+0Y3XMeBZW/lDloceEbDRSk56xmD9XMS3cNJUl+vMgElaxjHz0wTPPPLMZWnl0qK3zR6Xk70n34827mFXf6OTQtqOc2H531dK8/L5pst17JftGHvv65Lz3PHZd+5buTy553dJ+pQW9uvd4pn7ZfQakex638g3kMwSGBfw41js2IzC1/jK1+m6mL3jvzgLC4wi9oi88xiMLhkYbVjU8dn/g77fffs3ZZ589KJyHx/QcxnjzvD5pw2k7P/3pT5tXvepVa2WmZy1+73vfa4499tgN92WEbrAUmxgKj29/+9t3ev7iUuywnZgpYORxJpE3EJgp4MfxTCJvyASm1l+mVl+dfdcEhMdd82s/nQ66mE4XrxhF++53v9tOU+ubqtZ3T1gayUgP2I4RinhuZbzSI1Dy0Yn8Qdy7MvLYfcB3PuKRj/Dk+xCjggcddFBzxRVXNPkjXNJ+xD6nx7DEyMrJJ5/cnHDCCc2tt97a1ieNxsR/x7/nI4/vfOc7m9NPP72J+kcdf+d3fqc58MAD14Jf/oD4bniMfYoHMV911VVNPH8wvGLkLV5pG90Rr269dtttt7X9zC3yR8/kde6OMj355JNrI3xD7RX95MYbb2yirJtuuqmtZ4wOhlnsfz5KGu9N/aDrFvfOXXvttWt9JFb5TM6xj+95z3vafvjXf/3XzXvf+972/6fnMo7Q7W1iQQKLCo8Lqo5iCBAgUIXAjh07qtjPMXZSeBxDcTrbEB5HaOuNDrpZ4TGKj3BwzDHHtAEpX4kxnoX5wAMPtCOY3fvP8vdF8Ogb5Ztn2mq+ndtvv70NMBFsHnnkkfb/x9TbeJ122mnNm9/85va/I+zFA+Fjv/Iy8v3oTmGNz3Xrcdhhh+0UHq+77rrmoYceWpvCGiGybz/yqakpAL/yla9sImyl6ZkpaIZh+KQQmx7M3n0+X9TrlFNO2akdwiV//ELepvl/R3kf+MAH2v3dZ5992nZNzx3tOsffIpwmg4cffrj931HfVFY4pMVoDjjggNYqAmMKiWEa7ZO3W5RbalryCIeKTWxBYBEn9UWUsYWq+wiB0QT08dEoJ7GhqfWXqdV3Ep24YCWFxxFwZ4XHNDqUF5VGDvOgtO+++65bXOSOO+5YC4/dRULy0ctLLrlkMDymEcC87DRylgJJhKaYNprfw5bft5mPVnUX88inSd5www1r+zE0GppPVZ0nPMZ+pwAVVjGSmEYWU53ybcZ04RQUU+DN9yt36E7xzFcNTaODEc66o3XpXtTzzjtvXVDLtxfhu/u8v3QfZx4Qo81zq7xdb7755ubOO+9sA2LsQ9qnK6+8sjVJITgvV3gc4YBesk0s4qS+iDKWjNXuTExAH59Yg+9idafWX6ZW313sHpP/uPA4QheYFR7TqFsqKg8I3SCRB4FueEzTF9N2UsAbCkezRh67o2Ox3TzI5FM184U98sVs5gmP3cVAopx81G3WgjmxTzHSGVM649W9jzIPj/H3CJDHH3/82uhlHq7zaaDx3mQY/53XKw+P8bd82m3875juGmXkgbMbHofaKx/VjVC4UXjshv+46BBh8vzzz29HgCP0C48jHMRLvIlFnNQXUcYSE9u1CQjo4xNo5BGrOLX+MrX6jthVJrkp4XGEZt+V8LiZkcc0fbM7ErbVex43GnnMA1p3VdQ8MOUjkX0jj92popsdeYyRuQhyn/vc59qWiqmz+ZTV+Ld8mxGuYv8iFD711FNrixbFaORxxx23bippd+RxKDzG9OF8BHDekceh9uqOam4UHtO05bybdhcaEh5HOIiXeBOLOKkvoowlJrZrExDQxyfQyCNWcWr9ZWr1HbGrTHJTwuMIzb4r4TGK38o9j/lD0jeatpqHniir+2iCoXse81HPtGppfs9jujdw1j2P3fCYRv42M/KY7vfce++916ZwDoWpNBU2FudJC96kcNYNj/k9ihuNPObhMT1y4eCDD95pNd2N7nnM2yu/j3Ojkcf8nscIzKmt0rRVI48jHLwVbGIRJ/VFlFEBtV1cYQF9fIUbt0DVptZfplbfAl1mUpsUHkdo7l0Jj+k+x+5qq2nELYJl32qrfaucdqdzzpq2GoFkaLXV7r93p62mVUmHVn3Nn68Y+5qvHBvk+QI23WmrKVDH/48A2L0vsNtk3ZG4PKh1P5tPxX3HO97R3HPPPetWe40Fe5J9GjnMn9EX9T3xxBObL33pS22Qzf921llntdtLC/bk03Xz9pp35DHvA1HnZL377ruvLTTUnbaaRpP7nnk5Qle3iW0QWMRJfRFlbAOdIgmsCejjOsNmBKbWX6ZW3830Be/dWUB4HKFXTOmg2+wzGEfg3Wm0dIxtlthGd1GjEmXY5vQEFvH9sogyptdyarxMAvr4MrXG8u/L1PrL1Oq7/D1wufdQeByhfaZ00C06PKbRuzRNdoTmGm0T3dHZfHRxtEJsaPICi/h+SWV0n4Oa8PNnnvYtgBXvSzMk8gaLCyrp8T/5vcr5M2TT++P4icf5xIrK6Zmw+bbSc049q3Tyh8SWABZxHG1px3xoKQWm1l+mVt+l7HQV7ZTwOEJjOehGQLQJAgR6BRbx/dINj+n5pLFDKSzG1PWYJt19XE+8p/sc2vi3dK90/PeBBx64bpXkvuffdivfV44uQmCrAos4jra6bz63fAJT6y9Tq+/y9bi69kh4HKG9HHQjINoEAQJLGR5jp/L7p++77751j6hJO91d9TnCX4wixj3N8fl0P3G8X3jU2Rct4Dy9aPG6y5taf5lafevundu/98LjCG3goBsB0SYIEFja8JhPV++uAhw73TfyGIExXrGQV3pWa4xcCo86+nYIOE9vh3q9ZU6tv0ytvvX2zOXYc+FxhHZw0I2AaBMECFQTHtPq0PkOpxWZ49/yx/vEvY5x7+Ntt93W3tOYwuO11167rr75fZXxB9NWHRBjCjhPj6m5+tuaWn+ZWn1XvweXraHwOIKvg24ERJsgQGBpw2O+knB35LFvleG+RXW6j/WJyqYw2Vdx4dEBMaaA8/SYmqu/ran1l6nVd/V7cNkaCo8j+DroRkC0CQIEljY8zrrnMaalPvroo+2zT2M11L57GvN7It3zqLMvWsB5etHidZc3tf4ytfrW3Tu3f++FxxHawEE3AqJNECCwlOFxs6utxgjj0Ucf3eQrtkbF8gAafzPyqMMvUsB5epHa9Zc1tf4ytfrW30O3twbC4wj+DroREG2CAIGlCY933333un3pPufxjDPOaK688somf3ZjhMNbbrmleeMb39h8+MMfbuIz++6779p28hAa9z8Kjzr8IgWcpxepXX9ZU+svU6tv/T10e2sgPI7g76AbAdEmCBDY9vCoCQisqoDz9Kq2bJl6Ta2/TK2+ZXrNdLYqPI7Q1g66ERBtggAB4VEfIFBIwHm6EOyKbnZq/WVq9U3d9tvf/nbz2te+tvne977XvO9972tOO+20DXv0d7/73eZv//Zvm6985SvNz3/+8+aFL3xh85a3vKU59thjmzCcykt4HKGlp3rQjUBnEwQIzBBYxPfLIsrQ0AS2U0Af3079+sqeWn+ZWn1Tj4zbLeIxU09/+tObF7zgBc2NN97Y7Lnnnr0dNlYWP/PMM5uf/exnzSte8Yrml37pl9oQ+eMf/7h5xzve0Zx11lmTCZDC4wjfaVM96EagswkCBIRHfYBAcQHn6eLEK1XA1PrL1OobnfWxxx5r4pnFEQbj/vwvfvGLzQ033NC8/OUv36kvR0B8wxve0Pzwhz9sPvShDzUveclL2vf84Ac/aE488cTmJz/5SfvZGImcwkt4HKGVp3jQjcBmEwQIzCGwiO+XRZQxR1W9hUAxAX28GO1Kbnhq/WVq9Y1O+/nPf7456aSTmhNOOKF56Utf2v53BMQYjexOQU3v7fv7TTfd1D6e6sILL2zOPvvslTweupUSHkdo5ikedCOw2QQBAnMILOL7ZRFlzFFVbyFQTEAfL0a7khueWn+ZWn137NjRBr2PfexjzXXXXdfEI6Ze/epXNz/96U+bT3ziE81v//Zvr+vXMS31oosuaj71qU+19zfmr3vuuae9b/LAAw9sVxp/xjOesZLHRF4p4XGEJp7aQTcCmU0QIDCnwCK+XxZRxpzV9TYCRQT08SKsK7vRqfWXqdX3+9//fvOa17ymeeYzn9l88pOfbPbaa6/m4osvbkcP+xbOiZHFeMRU3BOZP6IqDoAHH3ywfbZx3CsZo5DPfvazV/a4SBUTHkdo4qkddCOQ2QQBAnMKLOL7ZRFlzFldbyNQREAfL8K6shudWn+ZWn2vvfbadqppjCZecMEFbT/+6le/2hx//PHN7/3e761bOCdGI+O+xlhptS88xv2OMZ31kUce2en5xqt6gAiPI7Ts1A66EchsggCBOQW6917M+TFvI0CAAIFdEIipjVN5Tel37FNPPdXe3/iNb3yjXeTmZS97WdvM6d//5V/+pZ3K+md/9mftvz/++OPtfZH33ntvb3hMf3/44YeFx6kcMGPUc0oH3RhetkGAwPwCi/h+WUQZ89fYOwmML6CPj2+6ylucWn+ZUn3TCOOLXvSi5vrrr2/22GOPta581VVXNaeffnrzxje+sXn/+9/fPo7DyOPOR7qRxxG+/aZ00I3AZRMECGxCYBHfL4soYxNV9lYCowvo46OTrvQGp9ZfplTftPjNRh34+c9/fvPxj3+8iYAZL/c8rtcSHkf4+ksHXbpp9u6771631VNPPbW55ppr1m6q7f79iCOO2OnqRzyMNG7ATa94iGnfEsDxvssuu6wdKo9XfKa7/f3333/dUPvQttPQ+6233rqTSt8+dt8U2z3nnHN6h/XnrU8skRyvtM9xVejcc89t/y0M0+uuu+5qb2yOqQXxfJ6h17zvi/2Luezdq1AjdA+bILBLAos4qS+ijF1C8GECuyigj+8i4MQ+PrX+MpX6xtTSWCgnntf4x3/8x82v/Mqv7NSzv/Od7zT/+q//uu5+yPid/ba3va39rX3UUUet+4zVVif25TBWdbvhMcJO6lwpkMWDSGMp4Ah3fX8/9NBD18JhBKhbbrllbe502kasBpUHqNj/vvCYb39WwEvbzsuPz0ToOuOMM5orr7xyp5Wl+txiO6eddlr7p1iuOA+63VA5VGZ8DpCGeQAAIABJREFUNg+PsbJV1Deu+AiPY/VW26lNYBEn9UWUUZu7/V0tAX18tdqzdG2m1l+mUt/0TMbjjjtubVpqty+lZzoecMAB7WM79t577+YLX/hCu5hO33Me477J+PehQZ7SfXU7tm/kcQT1jcJjbD7Cz3777ddEZ+2GxxSYHnjggbXRybiRN1aAypcDjlHNvn/fTHjcKCh2R/G64XHWCF78/eqrr24iJEcATCOCmykzheH4/8997nPbla3Cbp7wGOVH2ffff38b0rsjsenfHnrooZ3eFyOXRh5HOBBsoojAIk7qiyijCI6NEphTQB+fE8rbWoGp9Zcp1Pf//u//mre85S3NzTff3P7eft3rXtfb2x977LH2d+LXvva1tff993//d/v+WFE1VmpNi+z84Ac/aFdijRVXI0S+8IUvnMQRJDyO0Mwbhcc0lTVGA+cZeRwKMUMhbDPhcTOjiZt5bwrA8f9jxDHC3uGHH96Ovm52O33NMSs8xmcilB9zzDFr5T/66KPtFNT77rtvbXprel8amY3tpvfdfvvtpq2OcCzYxPgCizipL6KM8WVskcD8Avr4/FbeKTyuYh/49re/3bz2ta9tfuM3fmNtRHGonjEIErdhvfrVr24+/OEPN894xjOaT33qU82ZZ57ZfuQVr3hFu5jOV77ylebHP/5xE/dRnnXWWe1Fhym8hMcRWnnWPY9pKHvWPZGxKxuNgKURzO6U0Fn3PKb7FfMgtdF9grEfmwl9acrqm9/85na0NOqQppzOGrGchz/qHVd6uq98NDEfOc33PT6T/hb3giarqH++b/E39zzO0xres2iBRfzoXUQZi3ZTHoFcQB/XHzYjMLX+MoX6pkD41re+de0WqaE+kYJm/D1fOOfLX/5yc8UVVzR33HFH8/Of/7wdaYzRzGOPPXYywTFMhMfNfJsMvHfWtNX0sXwUcmhUbozwOHTP42YC4Wbfm6aMprrmwW4z9072Ec8aeeyGwnyKbzc85osQxd/SwjwxFUF43Fl/6IJHvoBSPmU430LqA5dcckn7z937dfvadd7DsVvm0L0G85QxdIEjTjRpOvlQv0wXNVJd00WZfP/Sglnpokx+rOT7nU5s8b78M4s4qc+6ALaZ9k4GeX2iTt2FBroLdHUN0yJbuUVsJ/XJtM04/uO4nvW+fMp6Xz9Nfz/llFPW3bOdX7Tru5CVlzt0vKTvmX322ad3UbO+RRjmPRa8bz6BRRxH8+2Jd9UgMLX+MrX61tAHl3kfhccRWmer4TGK7i6OM3RvY/7vMa867qGMEcjNTFsdmvoa204BL//xO2/o6/uBnn5wnXzyye3DVbsL8vSVOdQUs8Jj/Oibd+RxKCC657Ffv3vBI97V7UezLjTkfTT1r77tznsodke6h8ofCh95OSnk7bnnnuse7puCTzeQpM/mo+vxb3kfzet22GGHrfX/OBZiUak0Qt8dIY97huMZU/HKj5lFnNQ3+g7bbHsPfa/l93snozTVPD7TXVgr/vell17aPOtZz1q3qnL33yM8zvO++J7Y6DttqC90w2N+IaS7mNmsft3391RuXEjoruI37zHhfbMFFnEczd4L76hFYGr9ZWr1raUfLut+Co8jtMyuhMe+QDdrtdV8RCT++84772zv73viiSd6F+TJqzi08ml3JddZgSBtc+jHUr5fcT9h/giPjVaP7WuOWeExPrOVex5zZ9NW5w+PKRykUblZfaWvj+SBMkYm08WQrRyOfcdQujgR2+tbpTgPK3GfQuxPWuQp3Qt70EEHNT/60Y92GjHt28e8Pt2LGfmxkD+MeNaqw8l3ESf1Wd9h+XfOVto7eaeLNx/84Ad7R3XzctIFnd1226058sgj14JVtM9znvOc5utf/3rbZunYnfW+ecJjXISK7eR9ZqPwGPXKPdLI4tDsj3m+L/M+spXjwWf6BRZxHLFfHYGp9Zep1Xd1eur21ER4HMF91g+vWUGr7/mIGz0XMZ/ulT/DcWjKVJSfT4vqbrtvdGXe1Vb7RpXSD6qYnpeups9T5lBTzAqP6f7F7mqr8e/dKW751LXczsjj/OFxKyNR3Tbsu393q4di3w/ytP0IYPHqTpnNy9rqtNV8G92LJfkI99AxMhQkur6LOKmPOfI4VN/klT++qDvSln82hcI8xKeLAnGsR5vm4XHW++YNjxdffHFzwQUXrK14PSs8znocU95Phtp8jHvDt3r8TOVziziOpmI5hXpOrb9Mrb5T6MMl6yg8jqDroBsB0SaWUmCeRZ6G7nnML0rk4TxGyPseO7NVgG4wTY+NiSmgMQJUOjx2L7R0RxqHwlTfRZF0kSW//28R3y+z7nnc6L7N1G7pPbMuxGwUHvsWsQqn9PifCJSxGFc8bytfCCvC+qz3Dd3zmPY7LzuWck8zOqIPpZHxvjbrC4+xn/kr3TM6NDtEeNzq0T//5xZxHM2/N9657AJT6y9Tq++y979l3z/hcYQWctCNgGgTSykwzyJPs6YxRsXye3ZjlbL0w3xXp+jlj1uJbXXvhyy5YE7Uq+9+tW546guP3f3uNn7+md/8zd9sduzYUbR/DI089rXtrPbelZHHvvB45ZVXNuedd157r2i63/slL3nJTuFx1vvmHXmM0czdd9+9ve80RjgjrG4UHmc9jmmekcdZZkUbfyIbd56eSEOPVM2p9Zep1XekbjLZzQiPIzS9g24ERJtYSoG+aXbde3JnhYmoWBqdiamF99xzT/ujfFcWBxm6b3aeUdAu9FanrfZNN0+BMl/AKR+JjL9HKBm6DzPtW24ai01tV3iM/dlse280NTMtCrSZex7jfu54f9x/Gn3noosuapm6I4+z3reZ8BhT3lOg23vvvdcW/BqaQp8W4nHP41J+jbU75Ty9vG2zjHs2tf4ytfouY5+raZ+ExxFay0E3AqJNLKXAGKutpoqlFUy7j2TYSsXnGVGM7c7zvq2Ex40C89Bqq7E68tD+dEcr88AZq41uZ3jcyj2ufatI54tazbvaarp3NBbdis/3PbM2X+xqo/dtNjym/hOPY0mPVOm2n9VWt3L0bs9nnKe3x73WUqfWX6ZW31r75bLst/A4Qks46EZAtImlFBgaRcpH3WLHu8/5jH/LFySK/51GBQ8//PB1C9hsdvGcofsw+5712H2ERt+9lvOGx+49cbGCcP7KQ3E+ApruqZu13/lzEbf7nsfuaqFbae/ucx677TPPcx5TeEz3CqZHe/RNb81XnO5739A9j6mf5qOZ3UfKpO1t9TmPse1YtCzaNUJw955Iz3ks//XnPF3eeJVKmFp/mVp9V6mvbkddhMcR1B10IyDaBAECvQKL+H5ZRBmal8B2Cujj26lfX9lT6y9Tq299PXK59lh4HKE9hhabSJvOn102QnFrm8ivvnefLTdUTpoeF4tLxH06MWIUV8M3u/plWhWy+5iP7qMx0hX8Meu9bNvK2zdGJmJk7f777+99jt2y7bv9WX6BRZzUF1HG8kvbw1UW0MdXuXXHr9vU+svU6jt+j5nWFoXHEdp7u8JjvuvzLvXet4x+vhLmIYccMpdIbOfSSy9t4n6s9HD1+ODQv8+10UrfNBQeozpxn5sXgV0RWMRJfRFl7IqBzxLYVQF9fFcFp/X5qfWXqdV3Wr15/NoKjyOYbjY8plG7KDotABGPGcj/Pd3zlJaMj1Uqb7rppnZEK907lALjO9/5zub0009v76NJn4v/jntr0ivdU9MdeYz3xN9uvfXW9h61v/zLv2y++c1vNnH/UOxT/sy8/LEKaTu77bZbc+SRR66tnBkjb895znOar3/962uhMr/3Kd1fdMABB6ytOhkLUsSr+1zAvv2P96XtxbYi7MY+pIfA5/ckdZ3C8IorrmjrGX+77LLLWrOhZ9jl951FfVMZ//zP/7x2P98jjzyy5hzbOfDAA5vf//3fb+Lf47UrK4qO0DVtYgUEFnFSX0QZK9AUqlCxgD5eceNtw65Prb9Mrb7b0KVWqkjhcYTm3Ex4zJ8Ld9hhh60FqHiOWT51NAJSvE4++eT2PQ8//HAb8vIVA+Pvabn6fNpqd1XBfOXGWI0wFqEYmrYaS8337Ud3BC2FxwhksYR+BKsYwUxTYeN/x4hkhLMIabHvMYU1LWAS/xb1ilcE1divWIAk9i1eaen7CIf5/t93331rf0vL4h988MFt+d33xZTcCInPfe5z2+m5p5xySjsSGPsQz27rltVdZj9/Fl9axTHqkbdbKveBBx5YtwjMCN3KJgi0Aos4qS+iDM1JYDsF9PHt1K+v7Kn1l6nVt74euVx7LDyO0B7d8NhdSS+KSKNbQw8Qf9/73te8/e1vb59hlk8d7S6TH9tKq1PmD8re6J7HvMxZ4THKTvftRUg67bTT2odzd6ezpm3GeyO0paAYoez4449fC7Xdex7TFM8UHuMZdhHoNpo6m+9/9/lwQ9vrOnXDaAp7ebkxWpgH3e6Kjvnf8qmqpe5pHaFr2sQKCCzipL6IMlagKVShYgF9vOLG24Zdn1p/mVp9t6FLrVSRwuMIzbmZkcd8dCxNC81HD9MjD9J01ti9GKHLH6o+T3jsLimftjdPeIywlkJgeqh3PmU19imf/hqjphEwb7jhhma//fZr8lCbpt3GtNj0iiCdwmOqVzc8Du1/PEIgXmkKaTc85uWk0N4Ns3nY64bHfKpsfD5Ns41gmR4bEBbC4wgHjk3MJbCIk/oiypirst5EoJCAPl4IdkU3O7X+MrX6rmi3XVi1hMcRqDcTHodGHtO0zrQ7QyNq+Ujk0Mhjd6roZkce0/TTCE5x/2Lfoi/d0cCYunrPPfe0I6fxSoH45ptvbu688861eyi79eoLj90RwM2MPOYhO1l2FxPaKDzmATHvGn0PcU+jl0YeRziIbGJQYBEn9UWUoYkJbKeAPr6d+vWVPbX+MrX61tcjl2uPhccR2mMz4XHonse+0bHYtXTPY/x33BuY3/OXh7R82moeHtPIX/r8PCOP8d78vsC+FVi7gTRG7NLoZuxjX3hMD/qOexQ3GnnMw2N3/+e95zF/qHgesmMa7VB47N7zGO+75ZZb2vs1w9TI4wgHi01sWiC+X7wIECBAYLECO3bsWGyB21ia8LiN+BUWLTyO0GibCY9R3NBqq/mqpN1pq3vttVeTViVNK6fmI2qx3TTlMkLm+eefv7aC6llnndWWme5L7C6YkxaAuffee9uAFGGx75EeOVX+9zyoxShl336llWBPPPHE5ktf+tK6BXtiRdJ8+mhaiTWtAJvvfwp/sbhOrIb60pe+tHnqqad6V1tN95nOO/IY9U7hPla1TVNW+zzyADr0zMsRupZNELBgjj5AYAQBP45HQJzQJqbWX6ZW3wl15SJVFR5HYC150KVpqn3TMUfY9cFNpPsql/k5hX2LCZU0sW0C2yFQ8vsl1WcRZWyHnTIJ6OP6wFYEpvadOLX6bqVP+Mz/ExAeR+gNJQ+6RYfHVF6wpGc9jkA02ibyUdvYaP6MxtEKsSECSyRQ8vvFD+slami7UlRgEcdR0QrY+EIFptZfplbfhXamFSxMeByhUR10IyDaBAECvQKL+H5ZRBmal8B2Cujj26lfX9lT6y9Tq299PXK59lh4HKE9HHQjINoEAQLCoz5AoJCA83Qh2BXd7NT6y9Tqu6LddmHVEh5HoHbQjYBoEwQICI/6AIFCAs7ThWBXdLNT6y9Tq++KdtuFVUt4HIHaQTcCok0QICA86gMECgk4TxeCXdHNTq2/TK2+K9ptF1Yt4XEEagfdCIg2QYDAtofHeGROPPInHq2Tv9LCVOnv5557bhOP2Emv/NE1+eNu0t/jsTrxiKF41E78/Ywzzmgf19N9hmzfKs/5I4xie+lRRfn+xUJa8fie9Kihvn1I77/88sub7rNf429psbB4RFC88n2O/x378YEPfGCtjPi3/BFDfc/D1aWXR8B5ennaooY9mVp/mVp9a+iDy7yPwuMIreOgGwHRJggQWJrwmIfDfMXnCFQRLmeFx244jFAYr2uuuWZT4TEC2y233LIWPPvCa+zfaaed1m7/wAMPbLqPF4pt3HnnnetWj+4++zVt95hjjln7fDeQphCbr/AsPNZz0DpP19NWy7CnU+svU6vvMvSxmvdBeByh9Rx0IyDaBAECSxkeY6fSiOBxxx23pfAYQSxGBePxP/fdd99cI49Do5z5tvbYY482jF599dVNPAs3At51113XjnCm1zzhMR85zRsh//e0nYcffngtPAuP9Ry0ztP1tNUy7OnU+svU6rsMfazmfRAeR2g9B90IiDZBgMBShsc8xO3KyON+++3XjurNO201QuJll122Nuo41D0i1MUrth0h9/DDD99pSu1GI4+77757c8IJJ7ThM5+KG9vM9+Hmm29uHnjggXb7KQg/8cQTzUknndRcdNFFO03B1Z2XS8B5ernaY9n3Zmr9ZWr1Xfb+t+z7JzyO0EIOuhEQbYIAgaUJj917HuM+wQhnW73n8YgjjlibNrqZ8JhCWoww9r3SlNU3v/nNbXiLsHfbbbe102PnHXncKDzm01tTeIxAG2Hz0EMPbWIkVnis48B1nq6jnZZlL6fWX6ZW32XpZ7Xuh/A4Qss56EZAtAkCBJYmPHbvaUw7Nm947N7zmI/gPfTQQ3NNW51n5HHW4jyx37OmrW42PKb7Ni+88MLm4osvbi644AIjjxUcu87TFTTSEu3i1PrL1Oq7RF2tyl0RHkdoNgfdCIg2QYDA0ofHfPGcfIrnrAVx8nsDo5LzrLY6FFTTPY5XXXVVe+9hvPKRxu6KrbPCY9wfOe89jzFtNZUV5Tz66KPNk08+KTxWcOw6T1fQSEu0i1PrL1Or7xJ1tSp3RXgcodkcdCMg2gQBAksfHmMHU2iKxW/SgjVxv2BMbY1A2TctdSsjj2nUsG+11VgVdaPFe/J7HOcJj/OutpqHx/SZxx57bN3jO3Tj5RRwnl7OdlnWvZpaf5lafZe139WyX8LjCC3loBsB0SYIEKgiPKYAee21167tb/7sxb6ppPvvv/+Gz2BMf7/hhhuatLBO2nj3OY/p/suhaa2p/BRm5wmPUdY8z3nMw2N8pvs4D114eQWcp5e3bZZxz6bWX6ZW32XsczXtk/A4Qms56EZAtAkCBLY9PGoCAqsq4Dy9qi1bpl5T6y9Tq2+ZXjOdrQqPI7S1g24ERJsgQEB41AcIFBJwni4Eu6KbnVp/mVp9V7TbLqxawuMI1A66ERBtggAB4VEfIFBIwHm6EOyKbnZq/WVq9V3RbruwagmPI1A76EZAtAkCBIRHfYBAIQHn6UKwK7rZqfWXqdV3RbvtwqolPI5A7aAbAdEmCBAQHvUBAoUEnKcLwa7oZqfWX6ZW3xXttgurlvA4ArWDbgREmyBAQHjUBwgUEnCeLgS7opudWn+ZWn1XtNsurFrC4wjUDroREG2CAAHhUR8gUEjAeboQ7Ipudmr9ZWr1XdFuu7BqCY8jUDvoRkC0CQIEhEd9gEAhAefpQrArutmp9Zep1XdFu+3CqrUWHhdWooIIECBAgAABAgQIECBAoEqBpzVNs2PHjh1V7rydJkCAAAECBAgQIECAAIHyAqatljdWAgECBAgQIECAAAECBKoXEB6rb0IVIECAAAECBAgQIECAQHkB4bG8sRIIECBAgAABAgQIECBQvYDwWH0TqgABAgQIECBAgAABAgTKCwiP5Y2VQIAAAQIECBAgQIAAgeoFhMfqm1AFCBAgQIAAAQIECBAgUF5AeCxvrAQCBAgQIECAAAECBAhULyA8Vt+EKkCAAAECBAgQIECAAIHyAsJjeWMlECBAgAABAgQIECBAoHoB4bH6JlQBAgQIECBAgAABAgQIlBcQHssbK4EAAQIECBAgQIAAAQLVCwiP1TehChAgQIAAAQIECBAgQKC8gPBY3lgJBAgQIECAAAECBAgQqF5AeKy+CVWAAAECBAgQIECAAAEC5QWEx/LGSiBAgAABAgQIECBAgED1AsJj9U2oAgQIECBAgAABAgQIECgvIDyWN1YCAQIECBAgQIAAAQIEqhcQHqtvQhUgQIAAAQIECBAgQIBAeQHhsbyxEggQIECAAAECBAgQIFC9gPBYfROqAAECBAgQIECAAAECBMoLCI/ljZVAgAABAgQIECBAgACB6gWEx+qbUAUIECBAgAABAgQIECBQXkB4LG+sBAIECBAgQIAAAQIECFQvIDxW34QqQIAAAQIECBAgQIAAgfICwmN5YyUQIECAAAECBAgQIECgegHhsfomVAECBAgQIECAAAECBAiUFxAeyxsrgQABAgQIECBAgAABAtULCI/VN6EKECBAgAABAgQIECBAoLyA8FjeWAkECBAgQIAAAQIECBCoXkB4rL4JVYAAAQIECBAgQIAAAQLlBYTH8sZKIECAAAECBAgQIECAQPUCwmP1TagCBAgQIECAAAECBAgQKC8gPJY3VgIBAgQIECBAgAABAgSqFxAeq29CFSBAgAABAgQIECBAgEB5AeGxvLESCBAgQIAAAQIECBAgUL2A8Fh9E6oAAQIECBAgQIAAAQIEygsIj+WNlUCAAAECBAgQIECAAIHqBYTH6ptQBQgQIECAAAECBAgQIFBeQHgsb6wEAgQIECBAgAABAgQIVC8gPFbfhCpAgAABAgQIECBAgACB8gLCY3ljJRAgQIAAAQIECBAgQKB6AeGx+iZUAQIECBAgQIAAAQIECJQXEB7LGyuBAAECBAgQIECAAAEC1QsIj9U3oQoQIECAAAECBAgQIECgvIDwWN5YCQQIECBAgAABAgQIEKheQHisvglVgAABAgQIECBAgAABAuUFhMfyxkogQIAAAQIECBAgQIBA9QLCY/VNqAIECBAgQIAAAQIECBAoLyA8ljdWAgECBAgQIECAAAECBKoXEB6rb0IVIECAAAECBAgQIECAQHkB4bG8sRIIECBAgAABAgQIECBQvYDwWH0TqgABAgQIECBAgAABAgTKCwiP5Y2VQIAAAQIECBAgQIAAgeoFhMfqm1AFCBAgQIAAAQIECBAgUF5AeCxvrAQCBAgQIECAAAECBAhULyA8Vt+EKkCAAAECBAgQIECAAIHyAsJjeWMlECBAgAABAgQIECBAoHoB4bH6JlQBAgQIECBAgAABAgQIlBcQHssbK4EAAQIECBAgQIAAAQLVCwiP1TehChAgQIAAAQIECBAgQKC8gPBY3lgJBAgQIECAAAECBAgQqF5AeKy+CVWAAAECBAgQIECAAAEC5QWEx/LGSiBAgAABAgQIECBAgED1AsJj9U2oAgQIECBAgAABAgQIECgvIDyWN1YCAQIECBAgQIAAAQIEqhcQHqtvQhUgQIAAAQIECBAgQIBAeQHhsbyxEggQIECAAAECBAgQIFC9gPBYfROqAAECBAgQIECAAAECBMoLCI/ljZVAgAABAgQIECBAgACB6gWEx+qbUAUIECBAgAABAgQIECBQXkB4LG+sBAIECBAgQIAAAQIECFQvIDxW34QqQIAAAQIECBAgQIAAgfICwmN5YyUQIECAAAECBAgQIECgegHhsfomVAECBAgQIECAAAECBAiUFxAeyxsrgQABAgQIECBAgAABAtULCI/VN6EKECBAgAABAgQIECBAoLyA8FjeWAkECBAgQIAAAQIECBCoXkB4rL4JVYAAAQIECBAgQIAAAQLlBYTH8sZKIECAAAECBAgQIECAQPUCwmP1TagCBAgQIECAAAECBAgQKC8gPJY3VgIBAgQIECBAgAABAgSqFxAeq29CFSBAgAABAgQIECBAgEB5AeGxvLESCBAgQIAAAQIECBAgUL2A8Fh9E6oAAQIECBAgQIAAAQIEygsIj+WNlUCAAAECBAgQIECAAIHqBYTH6ptQBQgQIECAAAECBAgQIFBeQHgsb6wEAgQIECBAgAABAgQIVC8gPFbfhCpAgAABAgQIECBAgACB8gLCY3ljJRAgQIAAAQIECBAgQKB6AeGx+iZUAQIECBAgQIAAAQIECJQXEB7LGyuBAAECBAgQIECAAAEC1QsIj9U3oQoQIECAAAECBAgQIECgvIDwWN5YCQQIECBAgAABAgQIEKheQHisvglVgAABAgQIECBAgAABAuUFhMfyxkogQIAAAQIECBAgQIBA9QLCY/VNqAIECBAgQIAAAQIECBAoLyA8ljdWAgECBAgQIECAAAECBKoXEB6rb0IVIECAAAECBAgQIECAQHkB4bG8sRIIECBAgAABAgQIECBQvYDwWH0TqgABAgQIECBAgAABAgTKCwiP5Y2VQIAAAQIECBAgQIAAgeoFhMfqm1AFCBAgQIAAAQIECBAgUF5AeCxvrAQCBAgQIECAAAECBAhULyA8Vt+EKkCAAAECBAgQIECAAIHyAsJjeWMlECBAgAABAgQIECBAoHoB4bH6JlQBAgQIECBAgAABAgQIlBcQHssbK4EAAQIECBAgQIAAAQLVCwiP1TehChAgQIAAAQIECBAgQKC8gPBY3lgJBAgQIECAAAECBAgQqF5AeKy+CVWAAAECBAgQIECAAAEC5QWEx/LGSiBAgAABAgQIECBAgED1AsJj9U2oAgQIECBAgAABAgQIECgvIDyWN1YCAQIECBAgQIAAAQIEqhcQHqtvQhUgQIAAAQIECBAgQIBAeQHhsbyxEggQIECAAAECBAgQIFC9gPBYfROqAAECBAgQIECAAAECBMoLCI/ljZVAgAABAgQIECBAgACB6gWEx+qbUAUIECBAgAABAgQIECBQXkB4LG+sBAIECBAgQIAAAQIECFQvIDxW34QqQIAAAQIECBAgQIAAgfICwmN5YyUQIECAAAECBAgQIECgegHhsfomVAECBAgQIECAAAECBAiUFxAeyxsrgQABAgQIECBAgAABAtULCI/VN6EKECBAgAABAgQIECBAoLyA8FjeWAkECBAgQIAAAQIECBCHCURRAAAgAElEQVSoXkB4rL4JVYAAAQIECBAgQIAAAQLlBYTH8sZKIECAAAECBAgQIECAQPUCwmP1TagCBAgQIECAAAECBAgQKC8gPJY3VgIBAgQIECBAgAABAgSqFxAeq29CFSBAgAABAgQIECBAgEB5AeGxvLESCBAgQIAAAQIECBAgUL2A8Fh9E6oAAQIECBAgQIAAAQIEygsIj+WNlUCAAAECBAgQIECAAIHqBYTH6ptQBQgQIECAAAECBAgQIFBeQHgsb6wEAgQIECBAgAABAgQIVC8gPFbfhCpAgAABAgQIECBAgACB8gLCY3ljJRAgQIAAAQIECBAgQKB6AeGx+iZUAQIECBAgQIAAAQIECJQXEB7LGyuBAAECBAgQIECAAAEC1QsIj9U3oQoQIECAAAECBAgQIECgvIDwWN5YCQQIECBAgAABAgQIEKheQHisvglVgAABAgQIECBAgAABAuUFhMfyxkogQIAAAQIECBAgQIBA9QLCY/VNqAIECBAgQIAAAQIECBAoLyA8ljdWAgECBAgQIECAAAECBKoXEB6rb0IVIECAAAECBAgQIECAQHkB4bG8sRIIECBAgAABAgQIECBQvYDwWH0TqgABAgQIECBAgAABAgTKCwiP5Y2VQIAAAQIECBAgQIAAgeoFhMfqm1AFCBAgQIAAAQIECBAgUF5AeCxvrAQCBAgQIECAAAECBAhULyA8Vt+EKkCAAAECBAgQIECAAIHyAsJjeWMlECBAgAABAgQIECBAoHoB4bH6JlQBAgQIECBAgAABAgQIlBcQHssbK4EAAQIECBAgQIAAAQLVCwiP1TehChAgQIAAAQIECBAgQKC8gPBY3lgJBAgQIECAAAECBAgQqF5AeKy+CVWAAAECBAgQIECAAAEC5QWEx/LGSiBAgAABAgQIECBAgED1AsJj9U2oAgQIECBAgAABAgQIECgvIDyWN1YCAQIECBAgQIAAAQIEqhcQHqtvQhUgQIAAAQIECBAgQIBAeQHhsbyxEggQIECAAAECBAgQIFC9gPBYfROqAAECBAgQIECAAAECBMoLCI/ljZVAgAABAgQIECBAgACB6gWEx+qbUAUIECBAgAABAgQIECBQXkB4LG+sBAIECBAgQIAAAQIECFQvIDxW34QqQIAAAQIECBAgQIAAgfICwmN5YyUQIECAAAECBAgQIECgegHhsfomVAECBAgQIECAAAECBAiUFxAeyxsrgQABAgQIECBAgAABAtULCI/VN6EKECBAgAABAgQIECBAoLyA8FjeWAkECBAgQIAAAQIECBCoXkB4rL4JVYAAAQIECBAgQIAAAQLlBYTH8sZKIECAAAECBAgQIECAQPUCwmP1TagCBAgQIECAAAECBAgQKC8gPJY3VgIBAgQIECBAgAABAgSqFxAeq29CFSBAgAABAgQIECBAgEB5AeGxvLESCBAgQIAAAQIECBAgUL2A8Fh9E6oAAQIECBAgQIAAAQIEygsIj+WNlUCAAAECBAgQIECAAIHqBYTH6ptQBQgQIECAAAECBAgQIFBeQHgsb6wEAgQIECBAgAABAgQIVC8gPFbfhCpAgAABAgQIECBAgACB8gLCY3ljJRAgQIAAAQIECBAgQKB6AeGx+iZUAQIECBAgQIAAAQIECJQXEB7LGyuBAAECBAgQIECAAAEC1QsIj9U3oQoQIECAAAECBAgQIECgvIDwWN5YCQQIECBAgAABAgQIEKheQHisvglVgAABAgQIECBAgAABAuUFhMfyxkogQIAAAQIECBAgQIBA9QLCY/VNqAIECBAgQIAAAQIECBAoLyA8ljdWAgECBAgQIECAAAECBKoXEB6rb0IVIECAAAECBAgQIECAQHkB4bG8sRIIECBAgAABAgQIECBQvYDwWH0TqgABAgQIECBAgAABAgTKCwiP5Y2VQIAAAQIECBAgQIAAgeoFhMfqm1AFCBAgQIAAAQIECBAgUF5AeCxvrAQCBAgQIECAAAECBAhULyA8Vt+EKkCAAAECBAgQIECAAIHyAsJjeWMlECBAgAABAgQIECBAoHoB4bH6JlQBAgQIECBAgAABAgQIlBcQHssbK4EAAQIECBAgQIAAAQLVCwiP1TehChAgQIAAAQIECBAgQKC8gPBY3lgJBAgQIECAAAECBAgQqF5AeKy+CVWAAAECBAgQIECAAAEC5QWEx/LGSiBAgAABAgQIECBAgED1AsJj9U2oAgQIECBAgAABAgQIECgvIDyWN1YCAQIECBAgQIAAAQIEqhcQHqtvQhUgQIAAAQIECBAgQIBAeQHhsbyxEggQIECAAAECBAgQIFC9gPBYfROqAAECBAgQIECAAAECBMoLCI/ljZVAgAABAgQIECBAgACB6gWEx+qbUAUIECBAgAABAgQIECBQXkB4LG+sBAIECBAgQIAAAQIECFQvIDxW34QqQIAAAQIECBAgQIAAgfICwmN5YyUQIECAAAECBAgQIECgegHhsfomVAECBAgQIECAAAECBAiUFxAeyxsrgQABAgQIECBAgAABAtULCI/VN6EKECBAgAABAgQIECBAoLyA8FjeWAkECBAgQIAAAQIECBCoXkB4rL4JVYAAAQIECBAgQIAAAQLlBYTH8sZKIECAAAECBAgQIECAQPUCwmP1TagCBAgQIECAAAECBAgQKC8gPJY3VgIBAgQIECBAgAABAgSqFxAeq29CFSBAgAABAgQIECBAgEB5AeGxvLESCBAgQIAAAQIECBAgUL2A8Fh9E6oAAQIECBAgQIAAAQIEygsIj+WNlUCAAAECBAgQIECAAIHqBYTH6ptQBQgQIECAAAECBAgQIFBeQHgsb6wEAgQIECBAgAABAgQIVC8gPFbfhCpAgAABAgQIECBAgACB8gLCY3ljJRAgQIAAAQIECBAgQKB6AeGx+iZUAQIECBAgQIAAAQIECJQXEB7LGyuBAAECBAgQIECAAAEC1QsIj9U3oQoQIECAAAECBAgQIECgvIDwWN5YCQQIECBAgAABAgQIEKheQHisvglVgAABAgQIECBAgAABAuUFhMfyxkogQIAAAQIECBAgQIBA9QLCY/VNqAIECBAgQIAAAQIECBAoLyA8ljdWAgECBAgQIECAAAECBKoXEB6rb0IVIECAAAECBAgQIECAQHkB4bG8sRIIECBAgAABAgQIECBQvYDwWH0TqgABAgQIECBAgAABAgTKCwiP5Y2VQIAAAQIECBAgQIAAgeoFhMfqm1AFCBAgQIAAAQIECBAgUF5AeCxvrAQCBAgQIECAAAECBAhULyA8Vt+EKkCAAAECBAgQIECAAIHyAsJjeWMlECBAgAABAgQIECBAoHoB4bH6JlQBAgQIECBAgAABAgQIlBcQHssbK4EAAQIECBAgQIAAAQLVCwiP1TehChAgQIAAAQIECBAgQKC8gPBY3lgJBAgQIECAAAECBAgQqF5AeKy+CVWAAAECBAgQIECAAAEC5QWEx/LGSiBAgAABAgQIECBAgED1AsJj9U2oAgQIECBAgAABAgQIECgvIDyWN1YCAQIECBAgQIAAAQIEqhcQHqtvQhUgQIAAAQIECBAgQIBAeQHhsbyxEggQIECAAAECBAgQIFC9gPBYfROqAAECBAgQIECAAAECBMoLCI/ljZVAgAABAgQIECBAgACB6gWEx+qbUAUIECBAgAABAgQIECBQXkB4LG+sBAIECBAgQIAAAQIECFQvIDxW34QqQIAAAQIECBAgQIAAgfICwmN5YyUQIECAAAECBAgQIECgegHhsfomVAECBAgQIECAAAECBAiUFxAeyxsrgQABAgQIECBAgAABAtULCI/VN6EKECBAgAABAgQIECBAoLyA8FjeWAkECBAgQIAAAQIECBCoXkB4rL4JVYAAAQIECBAgQIAAAQLlBYTH8sZKIECAAAECBAgQIECAQPUCwmP1TagCBAgQIECAAAECBAgQKC8gPJY3VgIBAgQIECBAgAABAgSqFxAeq29CFSBAgAABAgQIECBAgEB5AeGxvLESCBAgQIAAAQIECBAgUL2A8Fh9E6oAAQIECBAgQIAAAQIEygsIj+WNlUCAAAECBAgQIECAAIHqBYTH6ptQBQgQIECAAAECBAgQIFBeQHgsb6wEAgQIECBAgAABAgQIVC8gPFbfhCpAgAABAgQIECBAgACB8gLCY3ljJRAgQIAAAQIECBAgQKB6AeGx+iZUAQIECBAgQIAAAQIECJQXEB7LGyuBAAECBAgQIECAAAEC1QsIj9U3oQoQIECAAAECBAgQIECgvIDwWN5YCQQIECBAgAABAgQIEKheQHisvglVgAABAgQIECBAgAABAuUFhMfyxkogQIAAAQIECBAgQIBA9QLCY/VNqAIECBAgQIAAAQIECBAoLyA8ljdWAgECBAgQIECAAAECBKoXEB6rb0IVIECAAAECBAgQIECAQHkB4bG8sRIIECBAgAABAgQIECBQvYDwWH0TqgABAgQIECBAgAABAgTKCwiP5Y2VQIAAAQIECBAgQIAAgeoFhMfqm1AFCBAgQIAAAQIECBAgUF5AeCxvrAQCBAgQIECAAAECBAhULyA8Vt+EKkCAAAECBAgQIECAAIHyAsJjeWMlECBAgAABAgQIECBAoHoB4bH6JlQBAgQIECBAgAABAgQIlBcQHssbK4EAAQIECBAgQIAAAQLVCwiP1TehChAgQIAAAQIECBAgQKC8gPBY3lgJBAgQIECAAAECBAgQqF5AeKy+CVWAAAECBAgQIECAAAEC5QWEx/LGSiBAgAABAgQIECBAgED1AsJj9U2oAgQIECBAgAABAgQIECgvIDyWN1YCAQIECBAgQIAAAQIEqhcQHqtvQhUgQIAAAQIECBAgQIBAeQHhsbyxEggQIECAAAECBAgQIFC9gPBYfROqAAECBAgQIECAAAECBMoLCI/ljZVAgAABAgQIECBAgACB6gWEx+qbUAUIECBAgAABAgQIECBQXkB4LG+sBAIECBAgQIAAAQIECFQvIDxW34QqQIAAAQIECBAgQIAAgfICwmN5YyUQIECAAAECBAgQIECgegHhsfomVAECBAgQIECAAAECBAiUFxAeyxsrgQABAgQIECBAgAABAtULCI/VN6EKECBAgAABAgQIECBAoLyA8FjeWAkECBAgQIAAAQIECBCoXkB4rL4JVYAAAQIECBAgQIAAAQLlBYTH8sZKIECAAAECBAgQIECAQPUCwmP1TagCBAgQIECAAAECBAgQKC8gPJY3VgIBAgQIECBAgAABAgSqFxAeq29CFSBAgAABAgQIECBAgEB5AeGxvLESCBAgQIAAAQIECBAgUL2A8Fh9E6oAAQIECBAgQIAAAQIEygsIj+WNlUCAAAECBAgQIECAAIHqBYTH6ptQBQgQIECAAAECBAgQIFBeQHgsb6wEAgQIECBAgAABAgQIVC8gPFbfhCpAgAABAgQIECBAgACB8gLCY3ljJRAgQIAAAQIECBAgQKB6AeGx+iZUAQIECBAgQIAAAQIECJQXEB7LGyuBAAECBAgQIECAAAEC1QsIj9U3oQoQIECAAAECBAgQIECgvIDwWN5YCQQIECBAgAABAgQIEKheQHisvglVgAABAgQIECBAgAABAuUFhMfyxkogQIAAAQIECBAgQIBA9QLCY/VNqAIECBAgQIAAAQIECBAoLyA8ljdWAgECBAgQIECAAAECBKoXEB6rb0IVIECAAAECBAgQIECAQHkB4bG8sRIIECBAgAABAgQIECBQvYDwWH0TqgABAgQIECBAgAABAgTKCwiP5Y2VQIAAAQIECBAgQIAAgeoFhMfqm1AFCBAgQIAAAQIECBAgUF5AeCxvrAQCBAgQIECAAAECBAhULyA8Vt+EKkCAAAECBAgQIECAAIHyAsJjeWMlECBAgAABAgQIECBAoHoB4bH6JlQBAgQIECBAgAABAgQIlBcQHssbK4EAAQIECBAgQIAAAQLVCwiP1TehChAgQIAAAQIECBAgQKC8gPBY3lgJBAgQIECAAAECBAgQqF5AeKy+CVWAAAECBAgQIECAAAEC5QWEx/LGSiBAgAABAgQIECBAgED1AsJj9U2oAgQIECBAgAABAgQIECgvIDyWN1YCAQIECBAgQIAAAQIEqhcQHqtvQhUgQIAAAQIECBAgQIBAeQHhsbyxEggQIECAAAECBAgQIFC9gPBYfROqAAECBAgQIECAAAECBMoLCI/ljZVAgAABAgQIECBAgACB6gWEx+qbUAUIECBAgAABAgQIECBQXkB4LG+sBAIECBAgQIAAAQIECFQvIDxW34QqQIAAAQIECBAgQIAAgfICwmN5YyUQIECAAAECBAgQIECgegHhsfomVAECBAgQIECAAAECBAiUFxAeyxsrgQABAgQIECBAgAABAtULCI/VN6EKECBAgAABAgQIECBAoLyA8FjeWAkECBAgQIAAAQIECBCoXkB4rL4JVYAAAQIECBAgQIAAAQLlBYTH8sZKIECAAAECBAgQIECAQPUCwmP1TagCBAgQIECAAAECBAgQKC8gPJY3VgIBAgQIECBAgAABAgSqFxAeq29CFSBAgAABAgQIECBAgEB5AeGxvLESCBAgQIAAAQIECBAgUL2A8Fh9E6oAAQIECBAgQIAAAQIEygsIj+WNlUCAAAECBAgQIECAAIHqBYTH6ptQBQgQIECAAAECBAgQIFBeQHgsb6wEAgQIECBAgAABAgQIVC8gPFbfhCpAgAABAgQIECBAgACB8gLCY3ljJRAgQIAAAQIECBAgQKB6AeGx+iZUAQIECBAgQIAAAQIECJQXEB7LGyuBAAECBAgQIECAAAEC1QsIj9U3oQoQIECAAAECBAgQIECgvIDwWN5YCQQIECBAgAABAgQIEKheQHisvglVgAABAgQIECBAgAABAuUFhMfyxkogQIAAAQIECBAgQIBA9QLCY/VNqAIECBAgQIAAAQIECBAoLyA8ljdWAgECBAgQIECAAAECBKoXEB6rb0IVIECAAAECBAgQIECAQHkB4bG8sRIIECBAgAABAgQIECBQvYDwWH0TqgABAgQIECBAgAABAgTKCwiP5Y2VQIAAAQIECBAgQIAAgeoFhMfqm1AFCBAgQIAAAQIECBAgUF5AeCxvrAQCBAgQIECAAAECBAhULyA8Vt+EKkCAAAECBAgQIECAAIHyAsJjeWMlECBAgAABAgQIECBAoHoB4bH6JlQBAgQIECBAgAABAgQIlBcQHssbK4EAAQIECBAgQIAAAQLVCwiP1TehChAgQIAAAQIECBAgQKC8gPBY3lgJBAgQIECAAAECBAgQqF5AeKy+CVWAAAECBAgQIECAAAEC5QWEx/LGSiBAgAABAgQIECBAgED1AsJj9U2oAgQIECBAgAABAgQIECgvIDyWN1YCAQIECBAgQIAAAQIEqhcQHqtvQhUgQIAAAQIECBAgQIBAeQHhsbyxEggQIECAAAECBAgQIFC9gPBYfROqAAECBAgQIECAAAECBMoLCI/ljZVAgAABAgQIECBAgACB6gWEx+qbUAUIECBAgAABAgQIECBQXkB4LG+sBAIECBAgQIAAAQIECFQvIDxW34QqQIAAAQIECBAgQIAAgfICwmN5YyUQIECAAAECBAgQIECgegHhsfomVAECBAgQIECAAAECBAiUFxAeyxsrgQABAgQIECBAgAABAtULCI/VN6EKECBAgAABAgQIECBAoLyA8FjeWAkECBAgQIAAAQIECBCoXkB4rL4JVYAAAQIECBAgQIAAAQLlBYTH8sZKIECAAAECBAgQIECAQPUCwmP1TagCBAgQIECAAAECBAgQKC8gPJY3VgIBAgQIECBAgAABAgSqFxAeq29CFSBAgAABAgQIECBAgEB5AeGxvLESCBAgQIAAAQIECBAgUL2A8Fh9E6oAAQIECBAgQIAAAQIEygsIj+WNlUCAAAECBAgQIECAAIHqBYTH6ptQBQgQIECAAAECBAgQIFBeQHgsb6wEAgQIECBAgAABAgQIVC8gPFbfhCpAgAABAgQIECBAgACB8gLCY3ljJRAgQIAAAQIECBAgQKB6AeGx+iZUAQIECBAgQIAAAQIECJQXEB7LGyuBAAECBAgQIECAAAEC1QsIj9U3oQoQIECAAAECBAgQIECgvIDwWN5YCQQIECBAgAABAgQIEKheQHisvglVgAABAgQIECBAgAABAuUFhMfyxkogQIAAAQIECBAgQIBA9QLCY/VNqAIECBAgQIAAAQIECBAoLyA8ljdWAgECBAgQIECAAAECBKoXEB6rb0IVIECAAAECBAgQIECAQHkB4bG8sRIIECBAgAABAgQIECBQvYDwWH0TqgABAgQIECBAgAABAgTKCwiP5Y2VQIAAAQIECBAgQIAAgeoFhMfqm1AFCBAgQIAAAQIECBAgUF5AeCxvrAQCBAgQIECAAAECBAhULyA8Vt+EKkCAAAECBAgQIECAAIHyAsJjeWMlECBAgAABAgQIECBAoHoB4bH6JlQBAgQIECBAgAABAgQIlBcQHssbK4EAAQIECBAgQIAAAQLVCwiP1TehChAgQIAAAQIECBAgQKC8gPBY3lgJBAgQIECAAAECBAgQqF5AeKy+CVWAAAECBAgQIECAAAEC5QWEx/LGSiBAgAABAgQIECBAgED1AsJj9U2oAgQIECBAgAABAgQIECgvIDyWN1YCAQIECBAgQIAAAQIEqhcQHqtvQhUgQIAAAQIECBAgQIBAeQHhsbyxEggQIECAAAECBAgQIFC9gPBYfROqAAECBAgQIECAAAECBMoLCI/ljZVAgAABAgQIECBAgACB6gWEx+qbUAUIECBAgAABAgQIECBQXkB4LG+sBAIECBAgQIAAAQIECFQvIDxW34QqQIAAAQIECBAgQIAAgfICwmN5YyUQIECAAAECBAgQIECgegHhsfomVAECBAgQIECAAAECBAiUFxAeyxsrgQABAgQIECBAgAABAtULCI/VN6EKECBAgAABAgQIECBAoLyA8FjeWAkECBAgQIAAAQIECBCoXkB4rL4JVYAAAQIECBAgQIAAAQLlBYTH8sZKIECAAAECBAgQIECAQPUCwmP1TagCBAgQIECAAAECBAgQKC8gPJY3VgIBAgQIECBAgAABAgSqFxAeq29CFSBAgAABAgQIECBAgEB5AeGxvLESCBAgQIAAAQIECBAgUL2A8Fh9E6oAAQIECBAgQIAAAQIEygsIj+WNlUCAAAECBAgQIECAAIHqBYTH6ptQBQgQIECAAAECBAgQIFBeQHgsb6wEAgQIECBAgAABAgQIVC8gPFbfhCpAgAABAgQIECBAgACB8gLCY3ljJRAgQIAAAQIECBAgQKB6AeGx+iZUAQIECBAgQIAAAQIECJQXEB7LGyuBAAECBAgQIECAAAEC1QsIj9U3oQoQIECAAAECBAgQIECgvIDwWN5YCQQIECBAgAABAgQIEKheQHisvglVgAABAgQIECBAgAABAuUFhMfyxkogQIAAAQIECBAgQIBA9QLCY/VNqAIECBAgQIAAAQIECBAoLyA8ljdWAgECBAgQIECAAAECBKoXEB6rb0IVIECAAAECBAgQIECAQHkB4bG8sRIIECBAgAABAgQIECBQvYDwWH0TqgABAgQIECBAgAABAgTKCwiP5Y2VQIAAAQIECBAgQIAAgeoFhMfqm1AFCBAgQIAAAQIECBAgUF5AeCxvrAQCBAgQIECAAAECBAhULyA8Vt+EKkCAAAECBAgQIECAAIHyAsJjeWMlECBAgAABAgQIECBAoHoB4bH6JlQBAgQIECBAgAABAgQIlBcQHssbK4EAAQIECBAgQIAAAQLVCwiP1TehChAgQIAAAQIECBAgQKC8gPBY3lgJBAgQIECAAAECBAgQqF5AeKy+CVWAAAECBAgQIECAAAEC5QWEx/LGSiBAgAABAgQIECBAgED1AsJj9U2oAgQIECBAgAABAgQIECgvIDyWN1YCAQIECBAgQIAAAQIEqhcQHqtvQhUgQIAAAQIECBAgQIBAeQHhsbyxEggQIECAAAECBAgQIFC9gPBYfROqAAECBAgQIECAAAECBMoLCI/ljZVAgAABAgQIECBAgACB6gWEx+qbUAUIECBAgAABAgQIECBQXkB4LG+sBAIECBAgQIAAAQIECFQvIDxW34QqQIAAAQIECBAgQIAAgfICwmN5YyUQIECAAAECBAgQIECgegHhsfomVAECBAgQIECAAAECBAiUFxAeyxsrgQABAgQIECBAgAABAtULCI/VN6EKECBAgAABAgQIECBAoLyA8FjeWAkECBAgQIAAAQIECBCoXkB4rL4JVYAAAQIECBAgQIAAAQLlBYTH8sZKIECAAAECBAgQIECAQPUCwmP1TagCBAgQIECAAAECBAgQKC8gPJY3VgIBAgQIECBAgAABAgSqFxAeq29CFSBAgAABAgQIECBAgEB5AeGxvLESCBAgQIAAAQIECBAgUL2A8Fh9E6oAAQIECBAgQIAAAQIEygsIj+WNlUCAAAECBAgQIECAAIHqBYTH6ptQBQgQIECAAAECBAgQIFBeQHgsb6wEAgQIECBAgAABAgQIVC8gPFbfhCpAgAABAgQIECBAgACB8gLCY3ljJRAgQIAAAQIECBAgQKB6AeGx+iZUAQIECBAgQIAAAQIECJQXEB7LGyuBAAECBAgQIECAAAEC1QsIj9U3oQoQIECAAAECBAgQIECgvIDwWN5YCQQIECBAgAABAgQIEKheQHisvglVgAABAgQIECBAgAABAuUFhMfyxkogQIAAAQIECBAgQIBA9QLCY/VNqAIECBAgQIAAAQIECBAoLyA8ljdWAgECBAgQIECAAAECBKoXEB6rb0IVIECAAAECBAgQIECAQHkB4bG8sRIIECBAgAABAgx3skAAACAASURBVAQIECBQvYDwWH0TqgABAgQIECBAgAABAgTKCwiP5Y2VQIAAAQIECBAgQIAAgeoFhMfqm1AFCBAgQIAAAQIECBAgUF5AeCxvrAQCBAgQIECAAAECBAhULyA8Vt+EKkCAAAECBAgQIECAAIHyAsJjeWMlECBAgAABAgQIECBAoHoB4bH6JlQBAgQIECBAgAABAgQIlBdYC4/li1ICAQIECBAgQIAAAQIECNQs8LSmaXbs2LGj5jrYdwJrAnFFRH/WIQgQIECAwHIKOE8vZ7vYKwLzCJi2Oo+S91Ql4KRUVXPZWQIECBCYmIDz9MQaXHVXSkB4XKnmVJkQcFLSDwgQIECAwPIKOE8vb9vYMwKzBITHWUL+Xp2Ak1J1TWaHCRAgQGBCAs7TE2psVV05AeFx5ZpUhZyU9AECBAgQILC8As7Ty9s29ozALAHhcZaQv1cn4KRUXZPZYQIECBCYkIDz9IQaW1VXTkB4XLkmVSEnJX2AAAECBAgsr4Dz9PK2jT0jMEtAeJwl5O/VCTgpVddkdpgAAQIEJiTgPD2hxlbVlRMQHleuSVXISUkfIECAAAECyyvgPL28bWPPCMwSmCs8Pvjgg83RRx/dHHzwwc0111yzbpvvfve7mzvvvLO5/vrrmz322KP92+OPP96ccMIJza233rr23lNPPXXdZ9M277777nXb23///Zsbb7yxOeSQQwa3lX/gM5/5THPUUUfNqqe/T0hgnpPSm970pubaa6/tVUl98JFHHmkuu+yyJvrYQw891Lz+9a9v7r///t7PRP+O90a/j/f19cmhPh8b7Pb7CTWXqhIgQIDAxAT6ztPxe/IDH/jAut+AwZLOneeee257bo33PfDAAzv9Hu173y233NKew/fdd9+dhGM76e+77777Tr9b0wfy35mf/exn29/Dfa8jjjii/S38xBNPtO/p/r6Nz3R/C0+s2VV3RQQ2FR7jQOiGtW54vOuuu9ofz4cffvi6Azt+rH/rW99aO4jjID/ppJOaiy66aC0ohmkcmOecc87al0cKokM/yFekHVRjRIF5wmNeXPS5uGCRXwBJfTGFx/zEM9QnZ/XVoT4/YtVtigABAgQILL3AUHiM338phKUBiV0Jj5/+9Keb5z//+c1VV121NsCRzu8R8F784he3v0tTeOz+1uz+Jh36vZCDD53rUz2OOeaY5uyzz176NrKDBIYE5g6PEfT22muv5j//8z/XXcXJw2MUEiMvhx56aO+BEQEyXjF6udEP6b5tzgqPfSOgmn2aAjWHxxRAh46habaoWhMgQIDAKgkMhceYyfbwww83ecDalfAY24vfrscff/y6gYr0ezQNagyFx+5v1V0Jj9F+fquuUi+ebl02FR7jSkkEvzgQ0/TV/EC47777mjPOOKO58sor1x2kiTdGJS+88MLmuuuua/+pb+Qx/j1/39ABPd0mU/NZAjWHx1l183cCBAgQIFC7wFB4jOmoMXMtn4G2q+Expro++uija4Masb34rfrKV76y+ehHPzpz5PG2225b+80rPNbe8+z/GAKbCo8xxTReMQp4+eWXr809T/c83n777Wv3iPXNL8+v4Oyzzz6D4TF/3wEHHDA4Dz1NN+grawwc26hTYJnD49B9EN1pOnXK22sCBAgQIDBbYKPwGIMTMTIYgS+/h3Ar9zzG79N3vvOd7bTVuA0lpsJGAIxAGCE13Zqy0T2P+fl5o3se43dxDLKYtjq7/b2jboFNh8dYyCa/yfjmm29eWzCnZHicNW217maw92MKLHN4HBptH7P+tkWAAAECBJZZYFZ4zO8PPO6449oFaLYaHiOAXnzxxe024jdsBNMIjvHqhsfub820jkcaMJl35HHoQnEKmMvcNvaNwCyBLYXHdF9WTF/db7/91sKjaauzuP19EQLC4yKUlUGAAAECBLYmMCs8xlbTYjURuCLk7Up4jMGNGG0877zz1m6vikUgZ4XH2I98vY55w2P3QnF30citqfkUgeUQ2FJ4jF1PV2Oe97znNc985jPbqQXx2q4Fc5aD014sg4DwuAytYB8IECBAgEC/wDzhMQW3f/u3f2v+53/+Z+12qaEAF79L83U38jU54vEZ6T7Hf//3f2/vYYztzBseY6AkpqRuNTymQZeoU3dld32EQG0CWw6PUdE4MLvLKntUR21dYPX2V3hcvTZVIwIECBBYHYF5w2P+fOT0qLihR17k90nGvY3dlU3T853TduYJj91AutXwmA+6dB9ltzqtqiZTEdil8Dh0JSX9+6233rrm2H0w6tAD07uL4PRtK2+ctF3LH0+ly86u53aHx7zfp72Nk1X07aH7IOJ9MTXn5JNP3nD0fnbtvYMAAQIECCy3wLzhMWqRFqnJnzM+z+/M7u/CPCzGQot94XHo/B0rtub70qe7//77t8+M3mhByFQX9z4ud/+0dxsLzBUeIRKoSWCz4bGmutlXAgQIECBQu4DzdO0taP+nLCA8Trn1V7TuTkor2rCqRYAAAQIrIeA8vRLNqBITFRAeJ9rwq1xtJ6VVbl11I0CAAIHaBZyna29B+z9lAeFxyq2/onV3UlrRhlUtAgQIEFgJAefplWhGlZiogPA40YZf5Wo7Ka1y66obAQIECNQu4Dxdewva/ykLCI9Tbv0VrbuT0oo2rGoRIECAwEoIOE+vRDOqxEQFhMeJNvwqV9tJaZVbV90IECBAoHYB5+naW9D+T1lAeJxy669o3Z2UVrRhVYsAAQIEVkLAeXolmlElJiogPE604Ve52k5Kq9y66kaAAAECtQs4T9fegvZ/ygLC45Rbf0Xr7qS0og2rWgQIECCwEgLO0yvRjCoxUQHhcaINv8rVdlJa5dZVNwIECBCoXcB5uvYWtP9TFhAep9z6K1p3J6UVbVjVIkCAAIGVEHCeXolmVImJCgiPE234Va62k9Iqt666ESBAgEDtAs7Ttbeg/Z+ygPA45dZf0bo7Ka1ow6oWAQIECKyEgPP0SjSjSkxUQHicaMOvcrWdlFa5ddWNAAECBGoXcJ6uvQXt/5QFhMcpt/6K1t1JaUUbVrUIECBAYCUEnKdXohlVYqICwuNEG36Vq+2ktMqtq24ECBAgULuA83TtLWj/pywgPE659Ve07k5KK9qwqkWAAAECKyHgPL0SzagSExUQHifa8KtcbSelVW5ddSNAgACB2gWcp2tvQfs/ZQHhccqtv6J1d1Ja0YZVLQIECBBYCQHn6ZVoRpWYqIDwONGGX+VqOymtcuuq22YEfv7znzdf/epXmyeffLI57LDDml/91V/dzMe9lwABAkUEnKeLsNoogYUICI8LYVbIIgWclDan/dnPfrY5+uijm1NPPbW55pprNvdh7x4UuOuuu5rXv/71zZ577tl85jOfaS655JLm2muvHXS+9957m4985CPNV77yleaee+5pt/tbv/Vbzcte9rL2MwcffHATfbvv9dRTTzXRjp/85Ceb73znO82jjz667m1HHHFEc/311zd77LGHFiNAYBcFHnzwwfY787HHHmtuvPHG5o477mjOOeecxnE2P6zz9PxW3klg2QSEx2VrEfuzywJOSpsjFB435zXvu+cNj//7v//bXHHFFc3ll1/ePP74482LXvSi5g/+4A+aX/iFX2juu+++5tvf/nYTI4jHH398c+mllza77777ul146KGHmtNOO635x3/8x512LcJibOvss89uDj/88Hl33fsIENhAQHjc9e7hPL3rhrZAYLsEhMcR5eNH3mtf+9rme9/7XvO+972v/UE39NqxY0dz++23N//wD//QXrWMH40HHXRQ86d/+qfNWWed1fzar/3aiHs2rU05KW3c3tH3vvWtb7WjYBFwIqCk17777tu84AUvaI477rjmqKOOMs1xFw6dbniMcHjVVVetG3mM4BgjFldeeWXz0pe+tHn3u9/dvPjFL143wvj973+/Oe+889rRyxjt+OAHP9iOZsYr2vLcc89trr766uav/uqvmjPPPLOJNhwaodyF6vgoAQL/v0A3PH7jG99o/uZv/sbI4yZ6iPP0JrC8lcCSCQiPIzZI/PCLH4hPf/rT2x/gMZ0l/cjLi4kffDHS8Hd/93fNbrvt1rziFa9o///Xv/71JqaudX8gjriLk9iUk9JwMz/xxBPN2972tuaGG25oR7ZilOtZz3pW87nPfa75oz/6o2bvvfduvvnNbzbx4+jQQw9t3vve97YjV16bF/jhD3/Y/MVf/EXzzGc+s51OGv8XPzDjOyJGAuMVgTAuMsX01I9+9KPt/+97xfS4k08+uX1//vkIlq95zWuaP/zDP2z+/u//vvnlX/7lze+oTxAgsCmBn/zkJ80b3vCG5v77728+/vGPN//1X//VXjh+3eteZ+r/nJLO03NCeRuBJRQQHkdqlPhxF/c3/exnP2uv/H/xi19sf6C//OUv36mEuCcppqDFj/YYRfjd3/3d9j1x31KMIsToxEUXXdRccMEFI+3dtDbjpNTf3vko16te9ao2bBxwwAHtvXL5PY/RD9///ve3wfHZz352249f+MIXtv3y9NNPb9761re2I2Td1+c///nmpJNOan9Uxd/f8573tKNqEXhiFDN/9U2VTSN1Mb0y3XsZx1WE3U996lPNq1/96vbf3/SmN7WjphttNw9YfdtN+xKj/7HPv/iLv9he7DnkkEPaP8U00U9/+tNteXG8xoIz3Vdf+fl70g/M2HYEwy9/+cvtD8yPfexjrUc4R9n/9E//1JYTPzw3eqV9fd7zntd84hOfaIP+F77whXYb0TZxoSouSsVMhtj/aLOwOvbYY9sLBfkr1e9DH/rQ2rTY6AsRZCOM5u9P3hvtW1gceeSRbSiOfYj6xH2a3VfqQzEz4z/+4z+am266qfnzP//zdqZGutDW175xQSO2/bWvfW2t3eN9t91227p2i/Kin8ffwjy/jzf6ZPTH7isC+5/8yZ80559/fvPrv/7r6/783e9+t+3LUf4PfvCD9iJfOEVbhXu+ANHQ/sQGU9l5v9zs/qcdiwuM0f/jeIuLPLH/0Z/i3DHPjJX/r72zCfVteuP4b4BkQilviS55KfJSygDFRCiMZEqUosjIRCgvMTRUGCsGEpEkRUqYSEmKUq68RSlk4P77rP7PaZ1198tv7/Xb57fOuZ9dt3vuPXvvtfZnrb3X813Ps54VXjP6T6yDhdnTTz+9oj8wiRT/H+/pUNvnjOe8a9ybOuE9f/3111PkDmMo3yg87ocOHdpV/BTO6/TdvP6///576r+8V0zM8N7D9+abb149/PDDO3VhApjraItXX311dfjw4dQn7r333p2JoWNr1J3+tI7T05l5hQRaIaB43FBLhOF81113pfCz3IguQ8gwyvFAdIW2kigDA/OCCy4wwcXMtnFQ6gaHGHrggQdS30LA8DdHl5DDOMIzzh8MIsTkV199lfomBjZetDPOOGOnIM7HuH/llVd2Jk3CYK4Rj4gQjPobb7wxZQslNHNT4hHxdt999yXPwfnnn79LhCCsH3/88Z3IgDyCACFBmNqYeAwD84QTTkjv+qeffprEGaHqiNR410888cTVa6+9tkIUDh2//vprMlCJUKDOiC6EPRNNd9555+rll19OE1J4jDlIvPPzzz+n9nv22Wd3vJL5JAJGOgl5qCPnf/vtt6sHH3wweTfDixm877jjjtWZZ565q4oY+u++++4OC4xuJsaYAHjxxRdXJ5100s75IZYxyuknCEHKfOutt1Ibhze2bN9oJ5gTpcG3FW94n4hAjN9zzz0paVCXeMyfA3Hw8ccfJ8FC337hhRd2BCETFoQBc1AufYDJDLLXInb43XPPPZfYcUwRNUPn99WfaxBXTN789NNPqQ8x8ch7iWi74oorBr3X0RBd4jHKJCnT9ddfv7r//vtT28W3AUFZRiAgtGhvvOsx2dMnHofeNd4nvkufffZZ6rtMevzwww9psoX+hqC99tprd/rRFM5c++WXX6Zr//nnn9U777yTfr7ppptWvHccl156afquMDlw9913r5gwCLb//vtvmjhgSQrjOt/NeE95p6gzkxREdNCvaJtyomzmMHbgL3OcPvBN7AMeYAKKxw00bhjODCwYcKxZwkvy559/Jg/BhRdeuKsUZogRmxiUpWcyQt0w6syOOK9xHJS6ueE1xPPz2GOPJVEYR1/CnDAEESSIm7POOiuJrTfffDP181tvvXXnHoRt4eHCUxnh2rXiMbz5eHsoL7w8mxKPvJsPPfTQClGWi0dEB+8vRjaG4XXXXbcL6FD5U3pscJ+SoTHKDg9W7k0rw91/+eWXJJ4Qd5zPtRx4+/gZMU5/OPvss9P/h/HM33zLEOwhcvo8vWUbh8ClPyBwCYuOI/rTDTfckCYjEF0Y5wgHBGV4U0u+iDUEKeIyX0feJSLoM4jLSB7UJR5L0Y/AxluOFymiRRAveGD5XSlevvnmm3T+33//nUTwRRddtMOpyxPKL9f1PA7VH2EPB0Il8RIidOJbF8sgbr/99l0CuKs/luKRZRZlG4x9G/h9l1DsE4997xpr/Zlwfe+995JXmD8xaRHiHYFMn+X7E/1xCud4lnhu/k0fYIyNI8ZwJg+YNCLvQEz6MtnCZC+eUd4L2sCjnoDjdD1D7yCBbRFQPG6AfKw7irVNeGSefPLJZKSPJc4piw/DjgEKw87EF9MbyEHpaGZhpOG5wChD6I0ZiGVSCGbjo38iIjGIo39ijGEE0ufDg1QrHvGUIu64Tx7SuQnxGGFmZC5FBGCQR9gqHkLKu/jii5OxiHjOj02JRwQZ92ItIz+v864H0xBF8W/qWoo16hzCC+8Kz4e3BU8kXj8EeQjEeD7EE940PHcYzFPFI+f3ffuoK15SJsUQunEwkQYDPDmIspxvJBBDlJQTcV3iEQ8Ywgpv2PPPP9/peezyGJdtiuB+5JFHkies/A7Hu4TYzEOdp3jE+kTQUP0j5DciAcLjyb3Cq4t3ljbEm9x3lOKRhFksuYB9uVRiKBPzuuJx6F2LiB28mmWOgFzQ5WHdUzmvIx7DSx1bb5x77rm78HWJ/+kjk1fkBByn7Q8S2L8EFI8baLswAvN1iqXR1pU4pyw6Zv6///77ZNjhGfCYTsBB6Whmf/31VxINhJuW69H6DMTwguNBRzTiUY+JEryA4SnCyMMj9P777+8SMDXiESMWIzHKDq/DmJiJZxlb80jdMMbJcoqYyYUAXidC0GJdYGlIbko8Rvj6lP01+8QjYgwvKRNY+RGewO+++y61IRNbnHvccceltVqsexs7hp63q43j20eoY3iMQ3BhnEe/iXL5HWGDP/74Y1oDTpvwTcXbzYGIxcuGRygX2KWICM8ckR6slyNj8DqeR7Y6QTwhqnIxmNePc+gjhDRGGGN42WOd7FRRM6X+eGiZsKGvlpM/UU/EN+uDCblmfd464pHJzaeeeiqFQsfa5vy6TYjHoXeNNmXcZAsaInLKgwkkQrL5vlDXeP837XnMy8XTiJgk3JWQYAR5JBHLvytj742/HybgOG0PkcD+JaB4rGy7vhnf+H8M6jLEr6vI2KuNpBhl2ExlFY+5yx2Uups8PEKl56LPQAyvAOugEB4YyyEUMeqiX4egJMMwYV/hEelLUJLXrivZBl5ADtY5ISIuueSSXQ9U63mMhFWsY2OtHcIlF48Y6oStIS7xiHFOvv3FpsTjnLDVCD0uw1b7BGjpJQMkQom2Wjcsfqp4jDJZRxje0BCUeKfzkOloWEQu/bJrr0qeGW8o4ZX5kYsvhCri44033kjPxQRAngSK66I/5mseaWuEE+IacfbMM8/s9F/EA/ek7pEwiRBqEqgwqcFReh7pr0NHX8KcsfoHU+pyyy23rE499dSjikF8MyEwNhkRnkc87Bw8D+tTu7yVteJx7F2LvkXo9jnnnHPUM8W6Sr4F0V/jmnU5x3lDYaucw7pFvNaIaMRjHPBhUoZnUTxuzpxwnN4cS+8kgb0moHisJB5GEWt7SmNsKMwoL5bZTdacMJiX6z4qq3dMXu6g1N3sYchhqJO0hRl9ji4DMbaGIGswxn6EMHJ+mVUVgUCSFTxGeXhpl7EeNesydCMMjsQUrDPEkCMJSL6vIdfXiEdCGRGGkXQGjyaCpgxBZDKHhCiEOPYdYwlzxl6+SJiDFxcxXno4y+vz9WER+hmemZbEI/XOs6riNWLiAoHSFVJJXyNBC4lrEOqffPJJ8qIixL7++usk0PCo4U3r8zxSJqKY/sfkG1vP9InHrnY5+eST0/X0OUKZ411BcJAAhfDeq666Kq27I6N2V5+hX+ItJTNnmfU0Egv1icex+udh52P9al3xeNpppyVerJcknLlrq5ga8bjOu7aOEOR583XBUzmvIx7zhD6syaXv4FHmnUSoG7Y61uum/95xejozr5BAKwQUj5UtEWE3Q7fpW4/ENRjnZGjDoMdwQkSus/apstoH+nIHpf7mzTNIEgqIocmkBWvE+JnQN/okhh/GPOcQXolxHUcklPnvv//SmkAM7i+++OIoAVQTtkpoLX+YTMEjVWa1nLtVB8+JN5H3DEHct36NZyVsFeHKe4kYIAslnqd1s62OvWT5Vh2ILdacDR1dW3UQ2cD6aAR3md2Ue0UILl4VRD7tCAO8w0uFrVJuCGO8xmzZQt+izHKCDU82ggoPH32P9kZIRvsSfopHkGd/6aWXktctjvA88v/0QzzWkQ2zS/T09UeS4hAmTVvH0oP4rtP2CN/8m7zpNY/r1D/CVlmrigC/5pprxrpX7+/LNY9MpLDGlQkbkgPl73qNeFznXQvOfaG4XQ8xNTx4HfEY7xHbsDBZcfrpp+8qWvE4u7v1Xug4vXmm3lECe0VA8VhBOjLysTYsT/2d35IZ7A8//PCofRsxmpjpxTjB84BxzAy3wrGiQf5/qYPSMEPWC7HOCUO07yBME28ihlq+l12cj9FH9kH6LaGqGJ55Ah3OqxWPYaSTJj9fAzzX84gngfBDUvYjMvC8DInHENqEreVemU2FrcIotkgoyyjbJTzBeDtz71V8gwjvI/Mnxm9+hJc4wv5Y60g2UgRDV8IcjGjCRPmeUQ77PU4NW6X8EDtMTODpZYIBT26eLZXzwsPH9i+RUbMsL0RzGd0RIoK1jQiwSLjDfaeIR86HByL8sssuSwIXMds3QUF/ZFsPPJCbSJgztf5Tk7CVfakr2yptxHOXkxhzxeO671ok2ioTcA19wZYQj0PPGZM8ePkNW60fn+MOjtObY+mdJLDXBBSPFcQj8ySDf6SeL28XxhtGXZ4oIgxT0uRzbbmHVkW1jvlLHZTGuwCTF2zSTtg1f/BCse6KkDv+Rmzke/SVd4xwbfY8Q8DgtSm3nakVj5QZe1PigYo9+OaKRwQY2wDgVY1ss33ikdBJQhP/+OOPTo9Xn7AYJ7/7DEQW3i7qRIQCIYQI8XwSifV4ZLDF0C6348hFOpNP1Cs2us+33kAURIZThDMijlDM/Hy8k7Bl3WCZ3XLdrTryp4vv49VXX7367bffdm1rEQKzS7SU7RtrUEtxw3mUcfzxx6f1erlXc6p4DCZ4y+hniF3aBS8oCWhi+4jY/oT7l3uDThU1U+sf+6ySHZj2yNcoRr0Q69SdENy+o2ufxwgZZ91hvi3GXPG47rsW26SQiIi+zxY50fcRbYh4QoGJFHj00UfTI03lHByG1jyG55Hnz/fAJfoAzzmTbUw8KR6nfuH6z3ec3hxL7ySBvSageJxJPPYnY7Y/N7TK28VedXh54ryPPvooJekgAQlGN/tYeWyOgIPSNJZDBmLfnaJf4zkjlLBMs5+Lmq61gV1ldqX+j7VIhNIyyYLoC3HRtWl9rKVEGLFRPcY/IZQY04Q1EobLexhioEs8RvZPBDVhlHi0yrV2mxKPcCK7I4YzhinGKhNNeNnw+rGNAp4u/p81qpxTZm6ONYNMSJ133nkpvJbjgw8+SPsUEvbLM8QzUx7PxRrVOJ+QUrxvrP3E40w5hEfSJuzBR7KayLib94mhCYJIpPT555+nOpQTbOFR5HnDExzioOTbJW6iH2Dwl9mph8Rj2W9YV0lGTZ4xRHZMHrBWMTaup1/AgmyuIbLyvj1V1Eytf0ymsMwBoc8kD3tM0v5M5iCO6CNEBAxl9+4Sj0wmIdRod/4gTGl/QrQRpF0ZXIe26lj3XeOZCI/H80gEz5VXXpm8vwhk/h/+rEFknMQ7v5R4zN/58p1gAok9bUnmxN98PzzqCThO1zP0DhLYFgHF40zyEbpE6FuZer68ZRhYzKoysONFYH0SoYHl2oq49vLLL09rzcrU+zOre0xd5qA0rbnniMdcHPbNxm/C80g5EdqJsZyHFI49ZSTZiH3sOL/ciqEUj5QRG67jfc1FTZS3ybDV/BnYaoI1Z+wxiPDC04GwQgwy2cQ3oS+sHZGNgIIP3ybWZnItHkY2u0eI5kdsQ4IhTOgoB+djxBOSidCM58SYxkPIv8vyh9o4MvMiQsq9HbsmBYb4luKGb2jUj2ekzfJ9D4fEY9lvWONHWxNWy/ZI8Yx4w5544okkwuknCHq+4awPJKKENarsaxrZY+eKx3XrH/WmXnBnOQRCkPpTNyZImFzpCjPPn7lLPPL7CCHmfvQBJl74GUHKVhqlIB0Sj+u8a7HFCefiXWe8e/vtt1d4zKP/IvThnScgmso5nn0s2yqh30yysJ0R5zI+IxZjvS4RRozXkXl67Pvj74cJOE7bQySwfwkoHme2XRhNzALz89ARQpNzmMFlvVikSe+7Ls8uN7OKx+xlDkp70/QkEmHipGtz+r2pQXcpIQj57brbUWyzvge17IjOQAiPTbAdVAY+lwQk0E3AcdqeIYH9S0DxuH/bzpr3EHBQWr5rkF2VNYHsAdm33nf5Wiget8V4nXIJNSazLSGrZDP1kIAEJBAEHKftCxLYvwQUj/u37ay54nFP+wAbo5OJk83TSZJzT3cCWgAABZJJREFUyimnJM8eCVFaOvQ8bq816BeEvh4+fHhFGC6htrF9xvZqZckSkEBrBBSPrbWI9ZHA+gQUj+uz8sx9QsBBabmGIkybbJSHDh1KGQhvu+225QrzzvuOABMMrJVjXRh7TxLSbybpfdeMVlgCixNwnF4csQVIYDECisfF0HrjbRFwUNoWecuVgAQkIAEJjBNwnB5n5BkSaJWA4rHVlrFeswk4KM1G54USkIAEJCCBxQk4Ti+O2AIksBgBxeNiaL3xtgg4KG2LvOVKQAISkIAExgk4To8z8gwJtEpA8dhqy1iv2QQclGaj80IJSEACEpDA4gQcpxdHbAESWIyA4nExtN54WwQclLZF3nIlIAEJSEAC4wQcp8cZeYYEWiWgeGy1ZazXbAIOSrPReaEEJCABCUhgcQKO04sjtgAJLEZA8bgYWm+8LQIOStsib7kSkIAEJCCBcQKO0+OMPEMCrRJQPLbaMtZrNgEHpdnovFACEpCABCSwOAHH6cURW4AEFiOgeFwMrTfeFgEHpW2Rt1wJSEACEpDAOAHH6XFGniGBVgkoHlttGes1m4CD0mx0XigBCUhAAhJYnIDj9OKILUACixFQPC6G1htvi4CD0rbIW64EJCABCUhgnIDj9Dgjz5BAqwQUj622jPWaTcBBaTY6L5SABCQgAQksTsBxenHEFiCBxQgoHhdD6423RcBBaVvkLVcCEpCABCQwTsBxepyRZ0igVQKKx1ZbxnrNJuCgNBudF0pAAhKQgAQWJ+A4vThiC5DAYgQUj4uh9cbbIuCgtC3ylisBCUhAAhIYJ+A4Pc7IMyTQKgHFY6stY71mE3BQmo3OCyUgAQlIQAKLE3CcXhyxBUhgMQKKx8XQeuNtEXBQ2hZ5y5WABCQgAQmME3CcHmfkGRJolYDisdWWsV6zCTgozUbnhRKQgAQkIIHFCThOL47YAiSwGAHF42JovfG2CDgobYu85UpAAhKQgATGCThOjzPyDAm0SkDx2GrLWK/ZBByUZqPzQglIQAISkMDiBBynF0dsAQME6H8edQQgeOTIkSN1d/FqCTRCwEGpkYawGhKQgAQkIIEOAo7TdottErD/1dHX81jHz6sbJOBHocFGsUoSkIAEJCCB/xNwnLYrbJOA/a+OvuKxjp9XN0jAj0KDjWKVJCABCUhAAopH+0ADBLQT6xpB8VjHz6sbJOBHocFGsUoSkIAEJCABxaN9oAEC2ol1jaB4rOPn1Q0S8KPQYKNYJQlIQAISkIDi0T7QAAHtxLpGUDzW8fPqBgn4UWiwUaySBCQgAQlIQPFoH2iAgHZiXSMoHuv4eXWDBPwoNNgoVkkCEpCABCSgeLQPNEBAO7GuERSPdfy8ukECfhQabBSrJAEJSEACElA82gcaIKCdWNcIisc6fl7dIAE/Cg02ilWSgAQkIAEJKB7tAw0Q0E6sawTFYx0/r26QgB+FBhvFKklAAhKQgAQUj/aBBghoJ9Y1guKxjp9XN0jAj0KDjWKVJCABCUhAAopH+0ADBLQT6xpB8VjHz6sbJOBHocFGsUoSkIAEJCABxaN9oAEC2ol1jaB4rOPn1Q0S8KPQYKNYJQlIQAISkIDi0T7QAAHtxLpGUDzW8fPqBgn4UWiwUaySBCQgAQlIQPFoH2iAgHZiXSMoHuv4eXWDBPwoNNgoVkkCEpCABCSgeLQPNEBAO7GuERSPdfy8ukECfhQabBSrJAEJSEACElA82gcaIKCdWNcIisc6fl7dIAE/Cg02ilWSgAQkIAEJKB7tAw0Q0E6sawTFYx0/r26QgB+FBhvFKklAAhKQgAQUj/aBBghoJ9Y1guKxjp9XN0jAj0KDjWKVJCABCUhAAopH+0ADBLQT6xphRzzW3carJSABCUhAAhKQgAQkIAEJSOCgE/gfUspMWCtVGooAAAAASUVORK5CYII=;movable=1;resizable=1;rotatable=1;deletable=1;editable=1;locked=0;connectable=1;" parent="1" vertex="1">
          <mxGeometry x="870" y="540" width="1054.72" height="860" as="geometry" />
        </mxCell>
        <mxCell id="Sf9XIOIQq0EHz7IIRPpC-7" style="edgeStyle=orthogonalEdgeStyle;rounded=0;orthogonalLoop=1;jettySize=auto;html=1;exitX=0;exitY=0.5;exitDx=0;exitDy=0;entryX=0;entryY=0.5;entryDx=0;entryDy=0;" parent="1" target="MUi1yYkGbGkddvzHHs3n-1" edge="1">
          <mxGeometry relative="1" as="geometry">
            <mxPoint x="890" y="917.5999999999999" as="sourcePoint" />
          </mxGeometry>
        </mxCell>
        <mxCell id="Sf9XIOIQq0EHz7IIRPpC-8" style="edgeStyle=orthogonalEdgeStyle;rounded=0;orthogonalLoop=1;jettySize=auto;html=1;exitX=0;exitY=0.25;exitDx=0;exitDy=0;entryX=0;entryY=0.25;entryDx=0;entryDy=0;" parent="1" target="MUi1yYkGbGkddvzHHs3n-1" edge="1">
          <mxGeometry relative="1" as="geometry">
            <mxPoint x="890" y="891.2" as="sourcePoint" />
          </mxGeometry>
        </mxCell>
        <mxCell id="Sf9XIOIQq0EHz7IIRPpC-9" style="edgeStyle=orthogonalEdgeStyle;rounded=0;orthogonalLoop=1;jettySize=auto;html=1;exitX=0;exitY=0;exitDx=0;exitDy=0;" parent="1" source="MUi1yYkGbGkddvzHHs3n-1" edge="1">
          <mxGeometry relative="1" as="geometry">
            <mxPoint x="1055.2" y="865.2" as="targetPoint" />
          </mxGeometry>
        </mxCell>
        <mxCell id="Sf9XIOIQq0EHz7IIRPpC-10" style="edgeStyle=orthogonalEdgeStyle;rounded=0;orthogonalLoop=1;jettySize=auto;html=1;exitX=0;exitY=1;exitDx=0;exitDy=0;" parent="1" source="MUi1yYkGbGkddvzHHs3n-1" edge="1">
          <mxGeometry relative="1" as="geometry">
            <mxPoint x="1055.2" y="970" as="targetPoint" />
          </mxGeometry>
        </mxCell>
        <mxCell id="Sf9XIOIQq0EHz7IIRPpC-16" style="edgeStyle=orthogonalEdgeStyle;rounded=0;orthogonalLoop=1;jettySize=auto;html=1;exitX=1;exitY=0.5;exitDx=0;exitDy=0;entryX=0;entryY=0.25;entryDx=0;entryDy=0;" parent="1" source="MUi1yYkGbGkddvzHHs3n-1" target="Sf9XIOIQq0EHz7IIRPpC-15" edge="1">
          <mxGeometry relative="1" as="geometry" />
        </mxCell>
        <mxCell id="Sf9XIOIQq0EHz7IIRPpC-21" style="edgeStyle=orthogonalEdgeStyle;rounded=0;orthogonalLoop=1;jettySize=auto;html=1;exitX=0.25;exitY=1;exitDx=0;exitDy=0;entryX=0.25;entryY=1;entryDx=0;entryDy=0;" parent="1" target="MUi1yYkGbGkddvzHHs3n-1" edge="1">
          <mxGeometry relative="1" as="geometry">
            <mxPoint x="1100.5714285714287" y="1050" as="sourcePoint" />
          </mxGeometry>
        </mxCell>
        <mxCell id="Sf9XIOIQq0EHz7IIRPpC-22" style="edgeStyle=orthogonalEdgeStyle;rounded=0;orthogonalLoop=1;jettySize=auto;html=1;exitX=0.75;exitY=1;exitDx=0;exitDy=0;entryX=0.75;entryY=1;entryDx=0;entryDy=0;" parent="1" target="MUi1yYkGbGkddvzHHs3n-1" edge="1">
          <mxGeometry relative="1" as="geometry">
            <mxPoint x="1190.2857142857142" y="1050" as="sourcePoint" />
          </mxGeometry>
        </mxCell>
        <mxCell id="Sf9XIOIQq0EHz7IIRPpC-25" style="edgeStyle=orthogonalEdgeStyle;rounded=0;orthogonalLoop=1;jettySize=auto;html=1;exitX=0.5;exitY=1;exitDx=0;exitDy=0;entryX=0.5;entryY=1;entryDx=0;entryDy=0;" parent="1" target="MUi1yYkGbGkddvzHHs3n-1" edge="1">
          <mxGeometry relative="1" as="geometry">
            <mxPoint x="1145.5172413793102" y="1049.9999999999998" as="sourcePoint" />
          </mxGeometry>
        </mxCell>
        <mxCell id="6HaCBjkbr7799Hjsup_u-6" style="edgeStyle=orthogonalEdgeStyle;rounded=0;orthogonalLoop=1;jettySize=auto;html=1;exitX=1;exitY=0.25;exitDx=0;exitDy=0;" edge="1" parent="1" source="MUi1yYkGbGkddvzHHs3n-1">
          <mxGeometry relative="1" as="geometry">
            <mxPoint x="1430" y="891.4285714285713" as="targetPoint" />
          </mxGeometry>
        </mxCell>
        <mxCell id="MUi1yYkGbGkddvzHHs3n-1" value="&lt;span style=&quot;font-size: 14px;&quot;&gt;&lt;br&gt;Составления бронирования&lt;/span&gt;" style="html=1;align=center;verticalAlign=top;rounded=1;absoluteArcSize=1;arcSize=10;dashed=0;whiteSpace=wrap;" parent="1" vertex="1">
          <mxGeometry x="1055.38" y="865" width="180" height="105" as="geometry" />
        </mxCell>
        <mxCell id="Sf9XIOIQq0EHz7IIRPpC-57" style="edgeStyle=orthogonalEdgeStyle;rounded=0;orthogonalLoop=1;jettySize=auto;html=1;exitX=1;exitY=0.5;exitDx=0;exitDy=0;" parent="1" source="MUi1yYkGbGkddvzHHs3n-2" edge="1">
          <mxGeometry relative="1" as="geometry">
            <mxPoint x="1860" y="1045" as="targetPoint" />
          </mxGeometry>
        </mxCell>
        <mxCell id="MUi1yYkGbGkddvzHHs3n-2" value="&lt;span style=&quot;font-size: 14px;&quot;&gt;&lt;br&gt;Подтверждение платежей в банковской системе&lt;/span&gt;" style="html=1;align=center;verticalAlign=top;rounded=1;absoluteArcSize=1;arcSize=10;dashed=0;whiteSpace=wrap;" parent="1" vertex="1">
          <mxGeometry x="1560" y="1005" width="180" height="80" as="geometry" />
        </mxCell>
        <mxCell id="Sf9XIOIQq0EHz7IIRPpC-46" style="edgeStyle=orthogonalEdgeStyle;rounded=0;orthogonalLoop=1;jettySize=auto;html=1;exitX=0;exitY=0.5;exitDx=0;exitDy=0;entryX=0;entryY=0.5;entryDx=0;entryDy=0;" parent="1" target="MUi1yYkGbGkddvzHHs3n-3" edge="1">
          <mxGeometry relative="1" as="geometry">
            <mxPoint x="1530" y="920" as="sourcePoint" />
          </mxGeometry>
        </mxCell>
        <mxCell id="Sf9XIOIQq0EHz7IIRPpC-47" style="edgeStyle=orthogonalEdgeStyle;rounded=0;orthogonalLoop=1;jettySize=auto;html=1;exitX=0;exitY=0.25;exitDx=0;exitDy=0;entryX=0;entryY=0.25;entryDx=0;entryDy=0;" parent="1" target="MUi1yYkGbGkddvzHHs3n-3" edge="1">
          <mxGeometry relative="1" as="geometry">
            <mxPoint x="1480" y="874.8571428571429" as="sourcePoint" />
          </mxGeometry>
        </mxCell>
        <mxCell id="Sf9XIOIQq0EHz7IIRPpC-49" style="edgeStyle=orthogonalEdgeStyle;rounded=0;orthogonalLoop=1;jettySize=auto;html=1;entryX=0.5;entryY=0;entryDx=0;entryDy=0;" parent="1" target="MUi1yYkGbGkddvzHHs3n-1" edge="1">
          <mxGeometry relative="1" as="geometry">
            <mxPoint x="1720" y="820" as="sourcePoint" />
            <Array as="points">
              <mxPoint x="1720" y="820" />
              <mxPoint x="1145" y="820" />
            </Array>
          </mxGeometry>
        </mxCell>
        <mxCell id="Sf9XIOIQq0EHz7IIRPpC-52" style="edgeStyle=orthogonalEdgeStyle;rounded=0;orthogonalLoop=1;jettySize=auto;html=1;exitX=1;exitY=0.5;exitDx=0;exitDy=0;" parent="1" source="MUi1yYkGbGkddvzHHs3n-3" edge="1">
          <mxGeometry relative="1" as="geometry">
            <mxPoint x="1910" y="890" as="targetPoint" />
          </mxGeometry>
        </mxCell>
        <mxCell id="Sf9XIOIQq0EHz7IIRPpC-54" style="edgeStyle=orthogonalEdgeStyle;rounded=0;orthogonalLoop=1;jettySize=auto;html=1;exitX=0.5;exitY=1;exitDx=0;exitDy=0;entryX=0.5;entryY=1;entryDx=0;entryDy=0;" parent="1" target="MUi1yYkGbGkddvzHHs3n-3" edge="1">
          <mxGeometry relative="1" as="geometry">
            <mxPoint x="1719.8571428571427" y="960" as="sourcePoint" />
          </mxGeometry>
        </mxCell>
        <mxCell id="6HaCBjkbr7799Hjsup_u-1" style="edgeStyle=orthogonalEdgeStyle;rounded=0;orthogonalLoop=1;jettySize=auto;html=1;exitX=0.5;exitY=0;exitDx=0;exitDy=0;entryX=0.5;entryY=0;entryDx=0;entryDy=0;" edge="1" parent="1" target="MUi1yYkGbGkddvzHHs3n-3">
          <mxGeometry relative="1" as="geometry">
            <mxPoint x="1720" y="820" as="sourcePoint" />
          </mxGeometry>
        </mxCell>
        <mxCell id="MUi1yYkGbGkddvzHHs3n-3" value="&lt;span style=&quot;font-size: 14px;&quot;&gt;Сохранение отзывов клиентов&lt;/span&gt;" style="html=1;align=center;verticalAlign=top;rounded=1;absoluteArcSize=1;arcSize=10;dashed=0;whiteSpace=wrap;" parent="1" vertex="1">
          <mxGeometry x="1630" y="860" width="180" height="60" as="geometry" />
        </mxCell>
        <mxCell id="MUi1yYkGbGkddvzHHs3n-5" value="&lt;font style=&quot;font-size: 10px;&quot;&gt;Данные о гостинице&lt;/font&gt;" style="text;html=1;strokeColor=none;fillColor=none;align=center;verticalAlign=middle;whiteSpace=wrap;rounded=0;rotation=0;" parent="1" vertex="1">
          <mxGeometry x="910" y="865" width="110" height="30" as="geometry" />
        </mxCell>
        <mxCell id="MUi1yYkGbGkddvzHHs3n-7" value="&lt;font style=&quot;font-size: 10px;&quot;&gt;Прайс-лист на номера&lt;br&gt;&lt;/font&gt;" style="text;html=1;strokeColor=none;fillColor=none;align=center;verticalAlign=middle;whiteSpace=wrap;rounded=0;rotation=0;" parent="1" vertex="1">
          <mxGeometry x="850" y="895" width="230" height="30" as="geometry" />
        </mxCell>
        <mxCell id="MUi1yYkGbGkddvzHHs3n-9" value="&lt;font style=&quot;font-size: 10px;&quot;&gt;Идентификатор клиента&lt;br&gt;&lt;/font&gt;" style="text;html=1;strokeColor=none;fillColor=none;align=center;verticalAlign=middle;whiteSpace=wrap;rounded=0;rotation=0;" parent="1" vertex="1">
          <mxGeometry x="895" y="940" width="140" height="30" as="geometry" />
        </mxCell>
        <mxCell id="Sf9XIOIQq0EHz7IIRPpC-13" value="" style="endArrow=classic;html=1;rounded=0;entryX=-0.001;entryY=0.937;entryDx=0;entryDy=0;entryPerimeter=0;" parent="1" target="MUi1yYkGbGkddvzHHs3n-1" edge="1">
          <mxGeometry width="50" height="50" relative="1" as="geometry">
            <mxPoint x="890" y="963" as="sourcePoint" />
            <mxPoint x="1050" y="910" as="targetPoint" />
          </mxGeometry>
        </mxCell>
        <mxCell id="Sf9XIOIQq0EHz7IIRPpC-14" value="&lt;font style=&quot;font-size: 10px;&quot;&gt;Идентификатор администратора&lt;br&gt;&lt;/font&gt;" style="text;html=1;strokeColor=none;fillColor=none;align=center;verticalAlign=middle;whiteSpace=wrap;rounded=0;rotation=0;" parent="1" vertex="1">
          <mxGeometry x="885" y="920" width="160" height="20" as="geometry" />
        </mxCell>
        <mxCell id="Sf9XIOIQq0EHz7IIRPpC-17" style="edgeStyle=orthogonalEdgeStyle;rounded=0;orthogonalLoop=1;jettySize=auto;html=1;entryX=0.002;entryY=0.777;entryDx=0;entryDy=0;entryPerimeter=0;" parent="1" target="Sf9XIOIQq0EHz7IIRPpC-15" edge="1">
          <mxGeometry relative="1" as="geometry">
            <mxPoint x="970" y="963" as="sourcePoint" />
            <Array as="points">
              <mxPoint x="970" y="1070" />
            </Array>
          </mxGeometry>
        </mxCell>
        <mxCell id="Sf9XIOIQq0EHz7IIRPpC-32" style="edgeStyle=orthogonalEdgeStyle;rounded=0;orthogonalLoop=1;jettySize=auto;html=1;exitX=0;exitY=1;exitDx=0;exitDy=0;entryX=0;entryY=0.717;entryDx=0;entryDy=0;entryPerimeter=0;startArrow=classic;startFill=1;" parent="1" source="Sf9XIOIQq0EHz7IIRPpC-15" target="MUi1yYkGbGkddvzHHs3n-1" edge="1">
          <mxGeometry relative="1" as="geometry">
            <mxPoint x="880" y="1140" as="targetPoint" />
            <Array as="points">
              <mxPoint x="880" y="1090" />
              <mxPoint x="880" y="940" />
            </Array>
          </mxGeometry>
        </mxCell>
        <mxCell id="Sf9XIOIQq0EHz7IIRPpC-42" style="edgeStyle=orthogonalEdgeStyle;rounded=0;orthogonalLoop=1;jettySize=auto;html=1;exitX=1;exitY=0.5;exitDx=0;exitDy=0;" parent="1" source="Sf9XIOIQq0EHz7IIRPpC-15" target="MUi1yYkGbGkddvzHHs3n-2" edge="1">
          <mxGeometry relative="1" as="geometry" />
        </mxCell>
        <mxCell id="Sf9XIOIQq0EHz7IIRPpC-15" value="&lt;span style=&quot;font-size: 14px;&quot;&gt;&lt;br&gt;Выбор дополнительных услуг&lt;/span&gt;" style="html=1;align=center;verticalAlign=top;rounded=1;absoluteArcSize=1;arcSize=10;dashed=0;whiteSpace=wrap;" parent="1" vertex="1">
          <mxGeometry x="1280" y="1000" width="180" height="90" as="geometry" />
        </mxCell>
        <mxCell id="Sf9XIOIQq0EHz7IIRPpC-18" value="" style="endArrow=classic;html=1;rounded=0;entryX=0;entryY=0.25;entryDx=0;entryDy=0;edgeStyle=orthogonalEdgeStyle;" parent="1" target="MUi1yYkGbGkddvzHHs3n-2" edge="1">
          <mxGeometry width="50" height="50" relative="1" as="geometry">
            <mxPoint x="1257" y="920" as="sourcePoint" />
            <mxPoint x="1399" y="920" as="targetPoint" />
            <Array as="points">
              <mxPoint x="1530" y="921" />
              <mxPoint x="1530" y="1025" />
            </Array>
          </mxGeometry>
        </mxCell>
        <mxCell id="Sf9XIOIQq0EHz7IIRPpC-20" value="&lt;font style=&quot;font-size: 10px;&quot;&gt;Данные о бронировании&lt;/font&gt;" style="text;html=1;strokeColor=none;fillColor=none;align=center;verticalAlign=middle;whiteSpace=wrap;rounded=0;rotation=0;" parent="1" vertex="1">
          <mxGeometry x="1327.36" y="895" width="140" height="30" as="geometry" />
        </mxCell>
        <mxCell id="Sf9XIOIQq0EHz7IIRPpC-23" value="&lt;font style=&quot;font-size: 10px;&quot;&gt;Администратор&lt;/font&gt;" style="text;html=1;strokeColor=none;fillColor=none;align=center;verticalAlign=middle;whiteSpace=wrap;rounded=0;rotation=-90;" parent="1" vertex="1">
          <mxGeometry x="1125.38" y="1000" width="110" height="30" as="geometry" />
        </mxCell>
        <mxCell id="Sf9XIOIQq0EHz7IIRPpC-24" value="&lt;font style=&quot;font-size: 10px;&quot;&gt;Клиент&lt;/font&gt;" style="text;html=1;strokeColor=none;fillColor=none;align=center;verticalAlign=middle;whiteSpace=wrap;rounded=0;rotation=-90;" parent="1" vertex="1">
          <mxGeometry x="1035" y="1000" width="110" height="30" as="geometry" />
        </mxCell>
        <mxCell id="Sf9XIOIQq0EHz7IIRPpC-26" value="&lt;font style=&quot;font-size: 10px;&quot;&gt;Система&lt;/font&gt;" style="text;html=1;strokeColor=none;fillColor=none;align=center;verticalAlign=middle;whiteSpace=wrap;rounded=0;rotation=-90;" parent="1" vertex="1">
          <mxGeometry x="1080" y="1000" width="110" height="30" as="geometry" />
        </mxCell>
        <mxCell id="Sf9XIOIQq0EHz7IIRPpC-36" style="edgeStyle=orthogonalEdgeStyle;rounded=0;orthogonalLoop=1;jettySize=auto;html=1;exitX=0.25;exitY=1;exitDx=0;exitDy=0;entryX=0.25;entryY=1;entryDx=0;entryDy=0;" parent="1" edge="1">
          <mxGeometry relative="1" as="geometry">
            <mxPoint x="1324.6" y="1090" as="targetPoint" />
            <mxPoint x="1325.1714285714286" y="1170" as="sourcePoint" />
          </mxGeometry>
        </mxCell>
        <mxCell id="Sf9XIOIQq0EHz7IIRPpC-37" style="edgeStyle=orthogonalEdgeStyle;rounded=0;orthogonalLoop=1;jettySize=auto;html=1;exitX=0.75;exitY=1;exitDx=0;exitDy=0;entryX=0.75;entryY=1;entryDx=0;entryDy=0;" parent="1" edge="1">
          <mxGeometry relative="1" as="geometry">
            <mxPoint x="1414.6" y="1090" as="targetPoint" />
            <mxPoint x="1414.8857142857141" y="1170" as="sourcePoint" />
          </mxGeometry>
        </mxCell>
        <mxCell id="Sf9XIOIQq0EHz7IIRPpC-38" style="edgeStyle=orthogonalEdgeStyle;rounded=0;orthogonalLoop=1;jettySize=auto;html=1;exitX=0.5;exitY=1;exitDx=0;exitDy=0;entryX=0.5;entryY=1;entryDx=0;entryDy=0;" parent="1" edge="1">
          <mxGeometry relative="1" as="geometry">
            <mxPoint x="1369.6" y="1090" as="targetPoint" />
            <mxPoint x="1370.1172413793101" y="1169.9999999999998" as="sourcePoint" />
          </mxGeometry>
        </mxCell>
        <mxCell id="Sf9XIOIQq0EHz7IIRPpC-39" value="&lt;font style=&quot;font-size: 10px;&quot;&gt;Администратор&lt;/font&gt;" style="text;html=1;strokeColor=none;fillColor=none;align=center;verticalAlign=middle;whiteSpace=wrap;rounded=0;rotation=-90;" parent="1" vertex="1">
          <mxGeometry x="1350" y="1120" width="110" height="30" as="geometry" />
        </mxCell>
        <mxCell id="Sf9XIOIQq0EHz7IIRPpC-40" value="&lt;font style=&quot;font-size: 10px;&quot;&gt;Клиент&lt;/font&gt;" style="text;html=1;strokeColor=none;fillColor=none;align=center;verticalAlign=middle;whiteSpace=wrap;rounded=0;rotation=-90;" parent="1" vertex="1">
          <mxGeometry x="1259.62" y="1120" width="110" height="30" as="geometry" />
        </mxCell>
        <mxCell id="Sf9XIOIQq0EHz7IIRPpC-41" value="&lt;font style=&quot;font-size: 10px;&quot;&gt;Система&lt;/font&gt;" style="text;html=1;strokeColor=none;fillColor=none;align=center;verticalAlign=middle;whiteSpace=wrap;rounded=0;rotation=-90;" parent="1" vertex="1">
          <mxGeometry x="1304.62" y="1120" width="110" height="30" as="geometry" />
        </mxCell>
        <mxCell id="Sf9XIOIQq0EHz7IIRPpC-43" value="&lt;font style=&quot;font-size: 10px;&quot;&gt;Данные о &lt;br&gt;бронировании&lt;/font&gt;" style="text;html=1;strokeColor=none;fillColor=none;align=center;verticalAlign=middle;whiteSpace=wrap;rounded=0;rotation=0;" parent="1" vertex="1">
          <mxGeometry x="1440" y="1030" width="140" height="30" as="geometry" />
        </mxCell>
        <mxCell id="Sf9XIOIQq0EHz7IIRPpC-44" style="edgeStyle=orthogonalEdgeStyle;rounded=0;orthogonalLoop=1;jettySize=auto;html=1;exitX=0.5;exitY=1;exitDx=0;exitDy=0;entryX=0.5;entryY=1;entryDx=0;entryDy=0;" parent="1" edge="1">
          <mxGeometry relative="1" as="geometry">
            <mxPoint x="1660" y="1085" as="targetPoint" />
            <mxPoint x="1660.5172413793102" y="1164.9999999999998" as="sourcePoint" />
          </mxGeometry>
        </mxCell>
        <mxCell id="Sf9XIOIQq0EHz7IIRPpC-45" value="&lt;font style=&quot;font-size: 10px;&quot;&gt;Система&lt;/font&gt;" style="text;html=1;strokeColor=none;fillColor=none;align=center;verticalAlign=middle;whiteSpace=wrap;rounded=0;rotation=-90;" parent="1" vertex="1">
          <mxGeometry x="1600" y="1110" width="110" height="30" as="geometry" />
        </mxCell>
        <mxCell id="Sf9XIOIQq0EHz7IIRPpC-48" value="&lt;font style=&quot;font-size: 10px;&quot;&gt;Идентификатор клиента&lt;br&gt;&lt;/font&gt;" style="text;html=1;strokeColor=none;fillColor=none;align=center;verticalAlign=middle;whiteSpace=wrap;rounded=0;rotation=0;" parent="1" vertex="1">
          <mxGeometry x="1490" y="850" width="140" height="30" as="geometry" />
        </mxCell>
        <mxCell id="Sf9XIOIQq0EHz7IIRPpC-50" value="&lt;font style=&quot;font-size: 10px;&quot;&gt;Пользовательское&lt;br&gt;соглашение&lt;br&gt;&lt;/font&gt;" style="text;html=1;strokeColor=none;fillColor=none;align=center;verticalAlign=middle;whiteSpace=wrap;rounded=0;rotation=0;" parent="1" vertex="1">
          <mxGeometry x="1410" y="800" width="110" height="30" as="geometry" />
        </mxCell>
        <mxCell id="Sf9XIOIQq0EHz7IIRPpC-53" value="&lt;font style=&quot;font-size: 10px;&quot;&gt;Отзывы&lt;br&gt;&lt;/font&gt;" style="text;html=1;strokeColor=none;fillColor=none;align=center;verticalAlign=middle;whiteSpace=wrap;rounded=0;rotation=0;" parent="1" vertex="1">
          <mxGeometry x="1790" y="865" width="140" height="30" as="geometry" />
        </mxCell>
        <mxCell id="Sf9XIOIQq0EHz7IIRPpC-55" value="&lt;font style=&quot;font-size: 10px;&quot;&gt;Клиент&lt;/font&gt;" style="text;html=1;strokeColor=none;fillColor=none;align=center;verticalAlign=middle;whiteSpace=wrap;rounded=0;rotation=-90;" parent="1" vertex="1">
          <mxGeometry x="1650" y="925" width="110" height="30" as="geometry" />
        </mxCell>
        <mxCell id="Sf9XIOIQq0EHz7IIRPpC-58" value="&lt;font style=&quot;font-size: 10px;&quot;&gt;Счет&lt;br&gt;&lt;/font&gt;" style="text;html=1;strokeColor=none;fillColor=none;align=center;verticalAlign=middle;whiteSpace=wrap;rounded=0;rotation=0;" parent="1" vertex="1">
          <mxGeometry x="1730" y="1020" width="140" height="30" as="geometry" />
        </mxCell>
        <mxCell id="6HaCBjkbr7799Hjsup_u-2" value="21" style="text;html=1;strokeColor=none;fillColor=none;align=center;verticalAlign=middle;whiteSpace=wrap;rounded=0;" vertex="1" parent="1">
          <mxGeometry x="1190" y="950" width="60" height="30" as="geometry" />
        </mxCell>
        <mxCell id="6HaCBjkbr7799Hjsup_u-3" value="22" style="text;html=1;strokeColor=none;fillColor=none;align=center;verticalAlign=middle;whiteSpace=wrap;rounded=0;" vertex="1" parent="1">
          <mxGeometry x="1414.62" y="1070" width="60" height="30" as="geometry" />
        </mxCell>
        <mxCell id="6HaCBjkbr7799Hjsup_u-4" value="23" style="text;html=1;strokeColor=none;fillColor=none;align=center;verticalAlign=middle;whiteSpace=wrap;rounded=0;" vertex="1" parent="1">
          <mxGeometry x="1700" y="1060" width="60" height="30" as="geometry" />
        </mxCell>
        <mxCell id="6HaCBjkbr7799Hjsup_u-5" value="24" style="text;html=1;strokeColor=none;fillColor=none;align=center;verticalAlign=middle;whiteSpace=wrap;rounded=0;" vertex="1" parent="1">
          <mxGeometry x="1760" y="895" width="60" height="30" as="geometry" />
        </mxCell>
        <mxCell id="6HaCBjkbr7799Hjsup_u-7" value="&lt;font style=&quot;font-size: 10px;&quot;&gt;Отчет о бронировании&lt;/font&gt;" style="text;html=1;strokeColor=none;fillColor=none;align=center;verticalAlign=middle;whiteSpace=wrap;rounded=0;rotation=0;" vertex="1" parent="1">
          <mxGeometry x="1250" y="865" width="140" height="30" as="geometry" />
        </mxCell>
      </root>
    </mxGraphModel>
  </diagram>
  <diagram id="30CSTh-y9SVbLgZfz-_A" name="Страница — 2">
    <mxGraphModel dx="5413" dy="2800" grid="1" gridSize="10" guides="1" tooltips="1" connect="1" arrows="1" fold="1" page="1" pageScale="1" pageWidth="3300" pageHeight="2339" math="0" shadow="0">
      <root>
        <mxCell id="0" />
        <mxCell id="1" parent="0" />
      </root>
    </mxGraphModel>
  </diagram>
</mxfile>
